<svg width="40" height="40" viewBox="0 0 40 40" fill="none" xmlns="http://www.w3.org/2000/svg">
<path d="M24.1249 0V5.5694H30.2031L22.1912 13.528C19.9431 12.0732 17.2634 11.2289 14.3862 11.2289C6.44133 11.2289 1.29372e-10 17.669 1.29372e-10 25.6138C-3.33332e-05 33.5587 6.44133 40 14.3862 40C22.331 40 28.7711 33.5587 28.7711 25.6138C28.7711 22.5939 27.841 19.7915 26.2511 17.4775L34.1284 9.6001V15.625H39.6978C39.6978 10.7425 39.7507 4.8698 39.7499 0H24.1249ZM14.3862 17.0192C19.1332 17.0192 22.9808 20.8667 22.9808 25.6138C22.9808 30.3609 19.1332 34.2097 14.3862 34.2097C9.6391 34.2097 5.79023 30.3609 5.79023 25.6138C5.79023 20.8667 9.63907 17.0192 14.3862 17.0192Z" fill="#0C1A21"/>
</svg>
