<svg width="58" height="58" viewBox="0 0 58 58" fill="none" xmlns="http://www.w3.org/2000/svg">
<g clip-path="url(#clip0)">
<path fill-rule="evenodd" clip-rule="evenodd" d="M29 3.625C22.2701 3.625 15.8159 6.29843 11.0572 11.0572C6.29844 15.8159 3.625 22.2701 3.625 29C3.625 35.7299 6.29843 42.1841 11.0572 46.9428C15.8159 51.7016 22.2701 54.375 29 54.375C35.7299 54.375 42.1841 51.7016 46.9428 46.9428C51.7016 42.1841 54.375 35.7299 54.375 29C54.375 22.2701 51.7016 15.8159 46.9428 11.0572C42.1841 6.29843 35.7299 3.625 29 3.625ZM29 -2.53526e-06C21.3087 -3.20765e-06 13.9325 3.05534 8.4939 8.4939C3.05535 13.9325 3.20765e-06 21.3087 2.53526e-06 29C1.86287e-06 36.6913 3.05535 44.0675 8.4939 49.5061C13.9325 54.9446 21.3087 58 29 58C36.6913 58 44.0675 54.9446 49.5061 49.5061C54.9447 44.0675 58 36.6913 58 29C58 21.3087 54.9447 13.9325 49.5061 8.4939C44.0675 3.05535 36.6913 -1.86287e-06 29 -2.53526e-06Z" fill="white"/>
<path fill-rule="evenodd" clip-rule="evenodd" d="M30.2831 16.8416C30.4519 17.01 30.5858 17.21 30.6772 17.4302C30.7686 17.6504 30.8156 17.8865 30.8156 18.1249C30.8156 18.3633 30.7686 18.5994 30.6772 18.8196C30.5858 19.0398 30.4519 19.2398 30.2831 19.4082L20.6877 28.9999L30.2831 38.5917C30.4516 38.7602 30.5853 38.9602 30.6765 39.1804C30.7677 39.4006 30.8147 39.6366 30.8147 39.8749C30.8147 40.1132 30.7677 40.3492 30.6765 40.5694C30.5853 40.7896 30.4516 40.9896 30.2831 41.1582C30.1146 41.3267 29.9145 41.4604 29.6944 41.5516C29.4742 41.6428 29.2382 41.6897 28.9999 41.6897C28.7616 41.6897 28.5256 41.6428 28.3054 41.5516C28.0852 41.4604 27.8851 41.3267 27.7166 41.1582L16.8416 30.2832C16.6728 30.1148 16.5389 29.9148 16.4475 29.6946C16.3562 29.4744 16.3091 29.2383 16.3091 28.9999C16.3091 28.7615 16.3562 28.5254 16.4475 28.3052C16.5389 28.085 16.6728 27.885 16.8416 27.7167L27.7166 16.8416C27.885 16.6729 28.085 16.5389 28.3052 16.4476C28.5254 16.3562 28.7615 16.3092 28.9999 16.3092C29.2383 16.3092 29.4743 16.3562 29.6945 16.4476C29.9147 16.5389 30.1148 16.6729 30.2831 16.8416Z" fill="white"/>
<path fill-rule="evenodd" clip-rule="evenodd" d="M41.6875 29C41.6875 29.4807 41.4965 29.9417 41.1566 30.2816C40.8167 30.6215 40.3557 30.8125 39.875 30.8125L21.75 30.8125C21.2693 30.8125 20.8083 30.6215 20.4684 30.2816C20.1285 29.9417 19.9375 29.4807 19.9375 29C19.9375 28.5193 20.1285 28.0583 20.4684 27.7184C20.8083 27.3785 21.2693 27.1875 21.75 27.1875L39.875 27.1875C40.3557 27.1875 40.8167 27.3785 41.1566 27.7184C41.4965 28.0583 41.6875 28.5193 41.6875 29Z" fill="white"/>
</g>
<defs>
<clipPath id="clip0">
<rect width="58" height="58" fill="white" transform="translate(58 58) rotate(-180)"/>
</clipPath>
</defs>
</svg>
