<svg width="58" height="58" viewBox="0 0 58 58" fill="none" xmlns="http://www.w3.org/2000/svg">
<path fill-rule="evenodd" clip-rule="evenodd" d="M29 54.375C35.7299 54.375 42.1841 51.7016 46.9428 46.9428C51.7016 42.1841 54.375 35.7299 54.375 29C54.375 22.2701 51.7016 15.8159 46.9428 11.0572C42.1841 6.29843 35.7299 3.625 29 3.625C22.2701 3.625 15.8159 6.29843 11.0572 11.0572C6.29843 15.8159 3.625 22.2701 3.625 29C3.625 35.7299 6.29843 42.1841 11.0572 46.9428C15.8159 51.7016 22.2701 54.375 29 54.375ZM29 58C36.6913 58 44.0675 54.9447 49.5061 49.5061C54.9447 44.0675 58 36.6913 58 29C58 21.3087 54.9447 13.9325 49.5061 8.4939C44.0675 3.05535 36.6913 0 29 0C21.3087 0 13.9325 3.05535 8.4939 8.4939C3.05535 13.9325 0 21.3087 0 29C0 36.6913 3.05535 44.0675 8.4939 49.5061C13.9325 54.9447 21.3087 58 29 58Z" fill="white"/>
<path fill-rule="evenodd" clip-rule="evenodd" d="M27.7169 41.1583C27.5481 40.99 27.4142 40.79 27.3228 40.5698C27.2314 40.3496 27.1844 40.1135 27.1844 39.8751C27.1844 39.6367 27.2314 39.4006 27.3228 39.1804C27.4142 38.9602 27.5481 38.7602 27.7169 38.5918L37.3123 29.0001L27.7169 19.4083C27.5484 19.2398 27.4147 19.0398 27.3235 18.8196C27.2323 18.5994 27.1853 18.3634 27.1853 18.1251C27.1853 17.8868 27.2323 17.6508 27.3235 17.4306C27.4147 17.2104 27.5484 17.0104 27.7169 16.8418C27.8854 16.6733 28.0855 16.5396 28.3056 16.4484C28.5258 16.3572 28.7618 16.3103 29.0001 16.3103C29.2384 16.3103 29.4744 16.3572 29.6946 16.4484C29.9148 16.5396 30.1149 16.6733 30.2834 16.8418L41.1584 27.7168C41.3272 27.8852 41.4611 28.0852 41.5525 28.3054C41.6438 28.5256 41.6909 28.7617 41.6909 29.0001C41.6909 29.2385 41.6438 29.4746 41.5525 29.6948C41.4611 29.915 41.3272 30.115 41.1584 30.2833L30.2834 41.1583C30.115 41.3271 29.915 41.4611 29.6948 41.5524C29.4746 41.6438 29.2385 41.6908 29.0001 41.6908C28.7617 41.6908 28.5257 41.6438 28.3055 41.5524C28.0853 41.4611 27.8852 41.3271 27.7169 41.1583Z" fill="white"/>
<path fill-rule="evenodd" clip-rule="evenodd" d="M16.3125 29C16.3125 28.5193 16.5035 28.0583 16.8434 27.7184C17.1833 27.3785 17.6443 27.1875 18.125 27.1875H36.25C36.7307 27.1875 37.1917 27.3785 37.5316 27.7184C37.8715 28.0583 38.0625 28.5193 38.0625 29C38.0625 29.4807 37.8715 29.9417 37.5316 30.2816C37.1917 30.6215 36.7307 30.8125 36.25 30.8125H18.125C17.6443 30.8125 17.1833 30.6215 16.8434 30.2816C16.5035 29.9417 16.3125 29.4807 16.3125 29Z" fill="white"/>
</svg>
