<svg width="92" height="90" viewBox="0 0 92 90" fill="none" xmlns="http://www.w3.org/2000/svg">
<g filter="url(#filter0_d)">
<path d="M45.7931 16C29.3696 16 16 27.6938 16 42.0689C16 56.4441 29.3696 68.1379 45.7931 68.1379C48.8658 68.1343 51.9234 67.7083 54.88 66.8717L65.1772 73.4262C65.4583 73.6065 65.7828 73.708 66.1166 73.7198C66.4503 73.7317 66.7812 73.6536 67.0744 73.4936C67.3676 73.3337 67.6124 73.0978 67.7831 72.8108C67.9539 72.5237 68.0442 72.196 68.0448 71.862V59.3303C70.3747 57.0952 72.2339 54.4166 73.5131 51.4522C74.7922 48.4878 75.4654 45.2975 75.4931 42.0689C75.5862 27.6938 62.2165 16 45.7931 16ZM64.9538 57.1703C64.7666 57.3439 64.617 57.5542 64.5145 57.788C64.412 58.0219 64.3587 58.2743 64.3579 58.5296V68.4731L56.202 63.2779C55.9745 63.1341 55.7186 63.0413 55.4518 63.0059C55.1849 62.9706 54.9136 62.9935 54.6565 63.0731C51.7866 63.9644 48.7983 64.4164 45.7931 64.4138C31.4179 64.4138 19.7241 54.3958 19.7241 42.0689C19.7241 29.7421 31.4179 19.7241 45.7931 19.7241C60.1682 19.7241 71.862 29.7421 71.862 42.0689C71.8196 44.9274 71.1836 47.7458 69.9944 50.3454C68.8051 52.945 67.0886 55.2691 64.9538 57.1703Z" fill="white"/>
<path d="M45.7931 68.6379H45.7937C48.8373 68.6344 51.8663 68.2224 54.7997 67.4133L64.9072 73.847C64.9073 73.847 64.9074 73.8471 64.9074 73.8471C65.264 74.0758 65.6755 74.2045 66.0988 74.2195C66.5222 74.2346 66.9419 74.1355 67.3138 73.9326C67.6858 73.7297 67.9963 73.4305 68.2129 73.0664C68.4294 72.7022 68.5441 72.2865 68.5448 71.8629V71.862V59.5422C70.8509 57.2913 72.6949 54.6104 73.9722 51.6503C75.2777 48.6247 75.9648 45.3684 75.993 42.0732L75.993 42.0722C76.0884 27.3568 62.4267 15.5 45.7931 15.5C29.1584 15.5 15.5 27.357 15.5 42.0689C15.5 56.7809 29.1584 68.6379 45.7931 68.6379ZM64.6212 56.7969L64.6212 56.7968L64.6138 56.8037C64.3763 57.0239 64.1866 57.2907 64.0566 57.5873C63.9266 57.8839 63.8589 58.2041 63.8579 58.528V58.5296V67.5618L56.4707 62.8562L56.4692 62.8553C56.1806 62.6728 55.8559 62.5551 55.5174 62.5103C55.179 62.4654 54.8348 62.4945 54.5087 62.5954L54.5082 62.5956C51.6864 63.472 48.7483 63.9164 45.7935 63.9138H45.7931C31.6189 63.9138 20.2241 54.0501 20.2241 42.0689C20.2241 30.0878 31.6189 20.2241 45.7931 20.2241C59.9658 20.2241 71.3596 30.0857 71.362 42.0651C71.3201 44.853 70.6996 47.6018 69.5397 50.1374C68.3793 52.674 66.7044 54.9418 64.6212 56.7969Z" stroke="white"/>
</g>
<g filter="url(#filter1_d)">
<mask id="path-3-outside-1" maskUnits="userSpaceOnUse" x="29.8965" y="29.8965" width="32" height="25" fill="black">
<rect fill="white" x="29.8965" y="29.8965" width="32" height="25"/>
<path fill-rule="evenodd" clip-rule="evenodd" d="M33.28 34.6206H58.3062C58.8001 34.6206 59.2737 34.4244 59.6229 34.0752C59.9721 33.726 60.1683 33.2524 60.1683 32.7586C60.1683 32.2647 59.9721 31.7911 59.6229 31.4419C59.2737 31.0927 58.8001 30.8965 58.3062 30.8965H33.28C32.7862 30.8965 32.3126 31.0927 31.9634 31.4419C31.6142 31.7911 31.418 32.2647 31.418 32.7586C31.418 33.2524 31.6142 33.726 31.9634 34.0752C32.3126 34.4244 32.7862 34.6206 33.28 34.6206ZM58.8276 40.207H32.7586C32.2648 40.207 31.7911 40.4032 31.4419 40.7524C31.0927 41.1016 30.8965 41.5752 30.8965 42.0691C30.8965 42.563 31.0927 43.0366 31.4419 43.3858C31.7911 43.735 32.2648 43.9312 32.7586 43.9312H58.8276C59.3214 43.9312 59.795 43.735 60.1442 43.3858C60.4934 43.0366 60.6896 42.563 60.6896 42.0691C60.6896 41.5752 60.4934 41.1016 60.1442 40.7524C59.795 40.4032 59.3214 40.207 58.8276 40.207ZM38.8103 49.5171H52.7758C53.2697 49.5171 53.7433 49.7133 54.0925 50.0625C54.4417 50.4117 54.6379 50.8853 54.6379 51.3792C54.6379 51.873 54.4417 52.3466 54.0925 52.6958C53.7433 53.045 53.2697 53.2412 52.7758 53.2412H38.8103C38.3165 53.2412 37.8428 53.045 37.4936 52.6958C37.1444 52.3466 36.9482 51.873 36.9482 51.3792C36.9482 50.8853 37.1444 50.4117 37.4936 50.0625C37.8428 49.7133 38.3165 49.5171 38.8103 49.5171Z"/>
</mask>
<path fill-rule="evenodd" clip-rule="evenodd" d="M33.28 34.6206H58.3062C58.8001 34.6206 59.2737 34.4244 59.6229 34.0752C59.9721 33.726 60.1683 33.2524 60.1683 32.7586C60.1683 32.2647 59.9721 31.7911 59.6229 31.4419C59.2737 31.0927 58.8001 30.8965 58.3062 30.8965H33.28C32.7862 30.8965 32.3126 31.0927 31.9634 31.4419C31.6142 31.7911 31.418 32.2647 31.418 32.7586C31.418 33.2524 31.6142 33.726 31.9634 34.0752C32.3126 34.4244 32.7862 34.6206 33.28 34.6206ZM58.8276 40.207H32.7586C32.2648 40.207 31.7911 40.4032 31.4419 40.7524C31.0927 41.1016 30.8965 41.5752 30.8965 42.0691C30.8965 42.563 31.0927 43.0366 31.4419 43.3858C31.7911 43.735 32.2648 43.9312 32.7586 43.9312H58.8276C59.3214 43.9312 59.795 43.735 60.1442 43.3858C60.4934 43.0366 60.6896 42.563 60.6896 42.0691C60.6896 41.5752 60.4934 41.1016 60.1442 40.7524C59.795 40.4032 59.3214 40.207 58.8276 40.207ZM38.8103 49.5171H52.7758C53.2697 49.5171 53.7433 49.7133 54.0925 50.0625C54.4417 50.4117 54.6379 50.8853 54.6379 51.3792C54.6379 51.873 54.4417 52.3466 54.0925 52.6958C53.7433 53.045 53.2697 53.2412 52.7758 53.2412H38.8103C38.3165 53.2412 37.8428 53.045 37.4936 52.6958C37.1444 52.3466 36.9482 51.873 36.9482 51.3792C36.9482 50.8853 37.1444 50.4117 37.4936 50.0625C37.8428 49.7133 38.3165 49.5171 38.8103 49.5171Z" fill="white"/>
<path d="M59.6229 34.0752L60.33 34.7823V34.7823L59.6229 34.0752ZM59.6229 31.4419L58.9158 32.149L59.6229 31.4419ZM31.9634 31.4419L31.2562 30.7348L31.2562 30.7348L31.9634 31.4419ZM31.9634 34.0752L31.2562 34.7823L31.2562 34.7823L31.9634 34.0752ZM31.4419 40.7524L30.7348 40.0453H30.7348L31.4419 40.7524ZM31.4419 43.3858L32.149 42.6787L32.149 42.6787L31.4419 43.3858ZM60.1442 43.3858L59.4371 42.6787V42.6787L60.1442 43.3858ZM58.3062 33.6206H33.28V35.6206H58.3062V33.6206ZM58.9158 33.3681C58.7541 33.5298 58.5349 33.6206 58.3062 33.6206V35.6206C59.0653 35.6206 59.7933 35.3191 60.33 34.7823L58.9158 33.3681ZM59.1683 32.7586C59.1683 32.9872 59.0775 33.2065 58.9158 33.3681L60.33 34.7823C60.8668 34.2456 61.1683 33.5176 61.1683 32.7586H59.1683ZM58.9158 32.149C59.0775 32.3106 59.1683 32.5299 59.1683 32.7586H61.1683C61.1683 31.9995 60.8668 31.2715 60.33 30.7348L58.9158 32.149ZM58.3062 31.8965C58.5349 31.8965 58.7541 31.9873 58.9158 32.149L60.33 30.7348C59.7933 30.198 59.0653 29.8965 58.3062 29.8965V31.8965ZM33.28 31.8965H58.3062V29.8965H33.28V31.8965ZM32.6705 32.149C32.8321 31.9873 33.0514 31.8965 33.28 31.8965V29.8965C32.521 29.8965 31.793 30.198 31.2562 30.7348L32.6705 32.149ZM32.418 32.7586C32.418 32.5299 32.5088 32.3106 32.6705 32.149L31.2562 30.7348C30.7195 31.2715 30.418 31.9995 30.418 32.7586H32.418ZM32.6705 33.3681C32.5088 33.2065 32.418 32.9872 32.418 32.7586H30.418C30.418 33.5176 30.7195 34.2456 31.2562 34.7823L32.6705 33.3681ZM33.28 33.6206C33.0514 33.6206 32.8321 33.5298 32.6705 33.3681L31.2562 34.7823C31.793 35.3191 32.521 35.6206 33.28 35.6206V33.6206ZM32.7586 41.207H58.8276V39.207H32.7586V41.207ZM32.149 41.4595C32.3107 41.2979 32.53 41.207 32.7586 41.207V39.207C31.9995 39.207 31.2716 39.5086 30.7348 40.0453L32.149 41.4595ZM31.8965 42.0691C31.8965 41.8405 31.9874 41.6212 32.149 41.4595L30.7348 40.0453C30.1981 40.5821 29.8965 41.31 29.8965 42.0691H31.8965ZM32.149 42.6787C31.9874 42.517 31.8965 42.2977 31.8965 42.0691H29.8965C29.8965 42.8282 30.1981 43.5561 30.7348 44.0929L32.149 42.6787ZM32.7586 42.9312C32.53 42.9312 32.3107 42.8403 32.149 42.6787L30.7348 44.0929C31.2716 44.6296 31.9995 44.9312 32.7586 44.9312V42.9312ZM58.8276 42.9312H32.7586V44.9312H58.8276V42.9312ZM59.4371 42.6787C59.2755 42.8403 59.0562 42.9312 58.8276 42.9312V44.9312C59.5866 44.9312 60.3146 44.6296 60.8513 44.0929L59.4371 42.6787ZM59.6896 42.0691C59.6896 42.2977 59.5988 42.517 59.4371 42.6787L60.8513 44.0929C61.3881 43.5561 61.6896 42.8282 61.6896 42.0691H59.6896ZM59.4371 41.4595C59.5988 41.6212 59.6896 41.8405 59.6896 42.0691H61.6896C61.6896 41.31 61.3881 40.5821 60.8513 40.0453L59.4371 41.4595ZM58.8276 41.207C59.0562 41.207 59.2755 41.2979 59.4371 41.4595L60.8513 40.0453C60.3146 39.5086 59.5866 39.207 58.8276 39.207V41.207ZM52.7758 48.5171H38.8103V50.5171H52.7758V48.5171ZM54.7996 49.3554C54.2629 48.8186 53.5349 48.5171 52.7758 48.5171V50.5171C53.0045 50.5171 53.2237 50.6079 53.3854 50.7696L54.7996 49.3554ZM55.6379 51.3792C55.6379 50.6201 55.3363 49.8921 54.7996 49.3554L53.3854 50.7696C53.5471 50.9312 53.6379 51.1505 53.6379 51.3792H55.6379ZM54.7996 53.4029C55.3363 52.8662 55.6379 52.1382 55.6379 51.3792H53.6379C53.6379 51.6078 53.5471 51.8271 53.3854 51.9887L54.7996 53.4029ZM52.7758 54.2412C53.5349 54.2412 54.2629 53.9397 54.7996 53.4029L53.3854 51.9887C53.2237 52.1504 53.0045 52.2412 52.7758 52.2412V54.2412ZM38.8103 54.2412H52.7758V52.2412H38.8103V54.2412ZM36.7865 53.4029C37.3233 53.9397 38.0512 54.2412 38.8103 54.2412V52.2412C38.5817 52.2412 38.3624 52.1504 38.2007 51.9887L36.7865 53.4029ZM35.9482 51.3792C35.9482 52.1382 36.2498 52.8662 36.7865 53.4029L38.2007 51.9887C38.0391 51.8271 37.9482 51.6078 37.9482 51.3792H35.9482ZM36.7865 49.3554C36.2498 49.8921 35.9482 50.6201 35.9482 51.3792H37.9482C37.9482 51.1505 38.0391 50.9312 38.2007 50.7696L36.7865 49.3554ZM38.8103 48.5171C38.0512 48.5171 37.3233 48.8186 36.7865 49.3554L38.2007 50.7696C38.3624 50.6079 38.5817 50.5171 38.8103 50.5171V48.5171Z" fill="white" mask="url(#path-3-outside-1)"/>
</g>
<defs>
<filter id="filter0_d" x="0" y="0" width="91.4935" height="89.721" filterUnits="userSpaceOnUse" color-interpolation-filters="sRGB">
<feFlood flood-opacity="0" result="BackgroundImageFix"/>
<feColorMatrix in="SourceAlpha" type="matrix" values="0 0 0 0 0 0 0 0 0 0 0 0 0 0 0 0 0 0 127 0"/>
<feOffset/>
<feGaussianBlur stdDeviation="7.5"/>
<feColorMatrix type="matrix" values="0 0 0 0 0.0156863 0 0 0 0 0.878431 0 0 0 0 0.411765 0 0 0 1 0"/>
<feBlend mode="normal" in2="BackgroundImageFix" result="effect1_dropShadow"/>
<feBlend mode="normal" in="SourceGraphic" in2="effect1_dropShadow" result="shape"/>
</filter>
<filter id="filter1_d" x="14.8965" y="14.8965" width="61.7931" height="54.3447" filterUnits="userSpaceOnUse" color-interpolation-filters="sRGB">
<feFlood flood-opacity="0" result="BackgroundImageFix"/>
<feColorMatrix in="SourceAlpha" type="matrix" values="0 0 0 0 0 0 0 0 0 0 0 0 0 0 0 0 0 0 127 0"/>
<feOffset/>
<feGaussianBlur stdDeviation="7.5"/>
<feColorMatrix type="matrix" values="0 0 0 0 0.0156863 0 0 0 0 0.878431 0 0 0 0 0.411765 0 0 0 1 0"/>
<feBlend mode="normal" in2="BackgroundImageFix" result="effect1_dropShadow"/>
<feBlend mode="normal" in="SourceGraphic" in2="effect1_dropShadow" result="shape"/>
</filter>
</defs>
</svg>
