<svg width="51" height="51" viewBox="0 0 51 51" fill="none" xmlns="http://www.w3.org/2000/svg">
<path d="M7.03038 37.1387L7.03137 37.1397C7.20136 37.3097 7.44084 37.4151 7.67417 37.4151C7.89755 37.4151 8.14222 37.3301 8.3203 37.1364C8.67964 36.7735 8.67854 36.2021 8.31697 35.8406C6.95831 34.4819 6.95928 32.2783 8.3163 30.9341L8.31697 30.9334C8.69074 30.5597 8.69563 29.9858 8.33052 29.6207C7.96785 29.258 7.39404 29.258 7.03137 29.6207C6.03129 30.6208 5.48219 31.9592 5.48219 33.3802C5.48219 34.8021 6.03182 36.1261 7.03038 37.1387Z" fill="#0C1A21" stroke="#0C1A21" stroke-width="0.4"/>
<path d="M43.5788 20.0937L43.5781 20.0944C43.2155 20.4571 43.2155 21.0309 43.5781 21.3936C43.7481 21.5636 43.9876 21.669 44.2209 21.669C44.4443 21.669 44.6888 21.5839 44.8669 21.3904C46.9333 19.3206 46.9328 15.9589 44.8654 13.8897C44.5135 13.5223 43.9382 13.528 43.5781 13.8881C43.2155 14.2508 43.2155 14.8246 43.5781 15.1873C44.9368 16.5459 44.9358 18.7495 43.5788 20.0937Z" fill="#0C1A21" stroke="#0C1A21" stroke-width="0.4"/>
<path d="M1.90543 37.4116C3.54155 40.1836 6.4345 41.6945 9.51421 41.473C9.29274 44.5526 10.8035 47.4454 13.5752 49.0815C14.813 49.8186 16.2307 50.1936 17.6476 50.1936C19.1202 50.1936 20.5932 49.7908 21.8724 48.9982L21.8725 48.9982C25.453 46.7777 26.8302 42.2646 25.0374 38.4845C24.5263 37.3979 24.7004 36.2314 25.4318 35.5001L35.5001 25.4318C36.2459 24.6859 37.4119 24.5139 38.4825 25.0364L38.4842 25.0373C42.2507 26.8302 46.7779 25.4532 48.9849 21.8721C50.5418 19.3694 50.5693 16.1052 49.068 13.5752C47.4318 10.8035 44.539 9.29274 41.4594 9.51421C41.6809 6.43465 40.1702 3.54184 37.3985 1.90567C34.8681 0.4041 31.6173 0.432055 29.1013 1.9889L29.1011 1.989C25.5201 4.20978 24.1575 8.7229 25.936 12.5022L25.9364 12.503C26.4471 13.5755 26.2736 14.7555 25.5419 15.4871L15.4736 25.5554C14.7277 26.3013 13.5618 26.4733 12.4912 25.9507L12.4894 25.9499C8.72302 24.157 4.20956 25.5204 1.98895 29.1148C0.43194 31.6174 0.404279 34.8816 1.90543 37.4116ZM14.4976 47.5045L14.4975 47.5044C12.0367 46.0437 10.8565 43.3389 11.4872 40.5796L11.4875 40.5785C11.5561 40.2699 11.47 39.9557 11.244 39.7297C11.074 39.5597 10.8345 39.4543 10.6012 39.4543H10.5947C10.5447 39.4542 10.4702 39.4542 10.3927 39.4731C7.64714 40.0897 4.92966 38.9092 3.46937 36.4628C2.31478 34.5078 2.3411 31.9993 3.53505 30.0707C5.27173 27.2684 8.78056 26.2072 11.6939 27.5983L11.6947 27.5987C13.4579 28.4309 15.4605 28.139 16.772 26.8418L16.7727 26.841L26.841 16.7727C28.1528 15.461 28.4445 13.4713 27.5985 11.6943C26.2203 8.78002 27.2691 5.27129 30.0707 3.53505C31.9996 2.34095 34.5214 2.31501 36.4625 3.46915L36.4626 3.46923C38.9236 4.93006 40.1034 7.63487 39.4729 10.3802L39.4726 10.3816C39.404 10.6902 39.4901 11.0044 39.7161 11.2304C39.942 11.4563 40.2701 11.5429 40.5662 11.4737C43.312 10.8565 46.0299 12.0368 47.4905 14.4833C48.6457 16.4663 48.6186 18.9748 47.4251 20.9029C45.6889 23.7045 42.1934 24.7536 39.2652 23.3749C37.5031 22.5433 35.4998 22.8202 34.1874 24.1326L24.119 34.2009C22.8073 35.5127 22.5155 37.5025 23.3617 39.2795C24.7397 42.1937 23.691 45.7022 20.8897 47.4384C18.9468 48.6329 16.4384 48.6585 14.4976 47.5045Z" fill="#0C1A21" stroke="#0C1A21" stroke-width="0.4"/>
</svg>
