<svg width="34" height="38" viewBox="0 0 34 38" fill="none" xmlns="http://www.w3.org/2000/svg">
<path d="M31.485 6.46978C32.7787 5.82378 33.635 4.90228 33.9539 3.80978C34.1179 3.23978 33.8081 2.63178 33.2615 2.46078C32.7149 2.28978 32.1318 2.61278 31.9678 3.18278C31.649 4.27528 29.672 5.06378 28.4968 5.06378C27.6768 5.06378 26.7385 5.52928 25.6179 6.49828C25.1897 6.86878 24.8253 7.22977 24.5884 7.47677C23.9142 7.40077 23.149 7.42928 22.2926 7.55277C22.0466 7.59078 21.8188 7.62878 21.5911 7.67628L20.6345 1.58678C20.4705 0.551276 19.5321 -0.151724 18.5482 0.0192762C17.5552 0.190276 16.881 1.16878 17.045 2.19478L18.1929 9.51927C18.7486 13.0438 18.4207 16.6823 17.2363 20.0263C17.1179 20.3683 16.9994 20.7198 16.8992 21.0618C16.3162 21.1568 15.5873 21.2803 14.8312 21.4323C11.433 22.0973 10.7953 22.5818 10.4582 22.9713C10.4309 23.0093 10.3853 23.0568 10.3398 23.1138C9.64736 23.9498 9.00052 24.6813 8.39924 25.3273C8.02571 25.0708 7.52464 24.7288 6.95979 24.3773C7.23311 23.3228 8.06215 19.7698 7.21489 17.6513L6.38584 15.5708C6.16719 15.0198 5.55679 14.7538 5.02839 14.9913C4.49999 15.2193 4.2449 15.8558 4.47266 16.4068L5.3017 18.4873C5.72989 19.5513 5.44747 21.7458 5.09216 23.2848C4.43622 22.9333 3.83493 22.6578 3.31564 22.4678C2.16773 22.0403 1.32046 21.9833 0.655401 22.2683C0.126998 22.4963 -0.128093 23.1328 0.0905568 23.6838C0.309206 24.2348 0.910492 24.5008 1.44801 24.2728C1.45712 24.2728 2.20417 24.0543 5.01928 25.6978C5.72989 26.1063 6.39495 26.5433 6.91424 26.8948C3.87137 29.8493 2.37727 30.1343 1.91264 30.1343C1.33868 30.1343 0.874051 30.6188 0.874051 31.2173C0.874051 31.8158 1.33868 32.3003 1.91264 32.3003C3.74383 32.3003 6.19452 30.7233 9.20095 27.6073C9.21917 27.7403 9.22828 27.8733 9.2465 28.0158C9.31939 28.6428 9.4196 29.1938 9.52893 29.6783C9.33761 29.7733 9.11896 29.8968 8.90031 30.0298C7.71596 30.7423 6.98713 31.5593 6.73204 32.4333C6.56805 33.0033 6.88691 33.6113 7.43354 33.7823C7.53375 33.8108 7.63396 33.8298 7.72507 33.8298C8.17148 33.8298 8.59056 33.5258 8.7181 33.0508C8.84565 32.6043 9.61092 32.0533 10.358 31.6638C10.5402 31.8823 10.7315 32.0533 10.9593 32.1768C10.9957 32.2623 11.1141 32.6518 10.8955 33.6968C10.7406 34.4568 10.4946 35.1123 10.4946 35.1123C10.2851 35.6728 10.5493 36.2998 11.0777 36.5183C11.2052 36.5658 11.3328 36.5943 11.4603 36.5943C11.8703 36.5943 12.262 36.3378 12.426 35.9103C12.4443 35.8723 12.7996 34.9033 12.9909 33.8298C13.3735 31.5783 12.6538 30.6568 11.9614 30.2863C11.8976 30.2103 11.515 29.6878 11.2781 27.5788C11.187 26.7428 11.1506 25.9448 11.1324 25.4888C11.3966 25.1848 11.6516 24.8808 11.925 24.5578C11.9523 24.5293 11.9796 24.4913 11.9978 24.4723C12.1254 24.3868 12.7996 24.0543 15.4234 23.5508C15.7331 23.4938 16.0429 23.4368 16.3344 23.3893C16.0429 24.8048 15.8789 26.2393 15.8242 27.6928C15.7422 30.3053 16.052 32.9083 16.7626 35.4163L17.1088 36.6513C17.3456 37.4778 18.0654 38.0193 18.8489 38.0193C19.022 38.0193 19.1859 37.9908 19.359 37.9433C20.3247 37.6488 20.8714 36.5943 20.5889 35.5873L20.2428 34.3523C19.0493 30.1153 19.2042 25.5078 20.6618 21.3658C21.9555 17.6893 22.3837 13.7183 21.9191 9.84227C22.1377 9.79477 22.3746 9.75677 22.6206 9.71877C23.5772 9.57627 24.3789 9.59527 24.9437 9.76627C24.6886 10.7923 24.4882 12.5023 25.2535 14.4023C25.3628 14.6873 25.4721 14.9913 25.5632 15.3048C25.5632 15.3143 25.5723 15.3238 25.5723 15.3333C26.2101 17.4803 26.4014 20.1688 26.3103 20.7863C26.1098 21.2423 26.2283 21.7933 26.6291 22.1068C26.8205 22.2493 27.0391 22.3253 27.2486 22.3253C27.5675 22.3253 27.8773 22.1733 28.0777 21.8883C28.2326 21.6698 28.6061 21.1568 28.269 18.2878C28.2143 17.8318 28.1232 17.1858 27.9866 16.4733C28.1141 16.5113 28.2508 16.5588 28.3874 16.5968C30.0455 17.1478 30.4464 17.5848 30.5102 17.6703C30.8564 19.2473 31.9952 21.6223 32.0407 21.7173C32.2229 22.0973 32.5873 22.3158 32.97 22.3158C33.1248 22.3158 33.2888 22.2778 33.4346 22.2018C33.9448 21.9358 34.1543 21.2803 33.8992 20.7483C33.5986 20.1213 32.7604 18.2403 32.5327 17.1478C32.314 16.1123 31.2663 15.3048 29.2529 14.6113C28.5332 14.3643 27.8408 14.1743 27.358 14.0603C27.3033 13.8893 27.2395 13.7278 27.1758 13.5663C26.8205 12.6733 26.7567 11.8563 26.8113 11.2103L27.3124 11.6568C27.3944 11.7233 27.4855 11.7898 27.5766 11.8278C27.8499 11.9513 29.7722 12.7873 31.649 12.7873C32.2411 12.7873 32.8242 12.7018 33.3526 12.4928C33.8901 12.2743 34.1543 11.6473 33.9448 11.0868C33.7352 10.5263 33.134 10.2508 32.5964 10.4693C31.5761 10.8873 29.6265 10.3553 28.5423 9.89927L26.9024 8.42677C26.866 8.39827 26.8296 8.36027 26.7931 8.33177C27.4673 7.73327 28.1688 7.25828 28.515 7.25828C29.3987 7.22977 30.5466 6.94478 31.485 6.46978Z" fill="#0C1A21"/>
</svg>
