<svg width="157" height="192" viewBox="0 0 157 192" fill="none" xmlns="http://www.w3.org/2000/svg">
<g filter="url(#filter0_d)">
<path d="M44.495 4.15967C45.1585 4.15967 53.3363 11.4542 53.3363 11.4542L61.067 14.9897L63.4179 19.3549L79.8457 14.1094L90.0066 17.2048L94.5427 23.85H106.579H111.216L113.704 30.0262H126.901L131.321 37.3208L137.069 55.8927L134.249 83.3033L113.646 112.482L82.4923 126.847L59.9564 125.52L42.0576 120.216L21.2885 102.972L8.48096 76.7664V52.1264L16.2117 27.371L32.7836 10.5668L44.495 4.15967Z" fill="#1C1E23"/>
<path d="M42.6847 122.647C35.0477 118.974 28.2762 113.981 22.5286 107.762C19.3916 104.363 16.5864 100.626 14.1994 96.6429C11.8412 92.7034 9.87248 88.5041 8.35086 84.1606C6.82924 79.8098 5.74752 75.3003 5.12733 70.7547C4.50715 66.1514 4.36292 61.4832 4.69464 56.8654C5.39416 47.2187 8.12009 37.9832 12.8076 29.426C16.3989 22.8746 20.9998 17.0086 26.4949 12.0084C31.8242 7.15261 37.8818 3.20589 44.4948 0.26208C45.3601 -0.120326 46.3337 -0.0842501 47.163 0.370308C47.9923 0.824867 48.5476 1.62576 48.6918 2.55652C49.1606 5.65906 51.1221 8.31426 53.949 9.67072C55.586 10.4572 57.3961 10.753 59.1845 10.5365C60.2807 10.3995 61.3552 10.8757 61.997 11.7776C62.9129 13.0691 64.1604 14.1153 65.6027 14.8079C69.5474 16.7055 74.3791 15.5944 77.0906 12.1672C77.6171 11.5034 78.4103 11.0849 79.2541 11.0344C80.105 10.9839 80.9415 11.2941 81.5473 11.893C82.2829 12.6145 83.141 13.2134 84.0785 13.6679C86.2852 14.7286 88.7732 14.8945 91.0953 14.1297C92.6313 13.6247 94.2756 14.4183 94.8453 15.9335C95.7034 18.2207 97.3909 20.0606 99.5976 21.1213C102.612 22.5715 106.088 22.3334 108.886 20.4935C109.629 20.0029 110.552 19.873 111.403 20.1256C112.261 20.3853 112.946 21.0058 113.299 21.8283C114.194 23.9424 115.831 25.6524 117.9 26.6481C120.518 27.9036 123.525 27.8963 126.143 26.6192C127.549 25.9338 129.273 26.4533 130.059 27.8025C135.511 37.139 138.677 47.7815 139.217 58.5682C139.492 64.059 139.088 69.5714 138.02 74.954C136.924 80.4952 135.114 85.9139 132.648 91.0583C125.126 106.737 112.037 118.758 95.79 124.919C87.8862 127.914 79.6146 129.393 71.1988 129.313C62.5162 129.227 54.0355 127.481 45.9803 124.118C44.8625 123.657 43.7664 123.166 42.6847 122.647ZM44.3433 5.89716C32.7833 11.5683 23.4373 20.5007 17.2282 31.8503C8.7547 47.3197 7.25472 65.7834 13.1032 82.4866C18.5984 98.1725 30.1223 111.016 44.9707 118.151C45.9371 118.613 46.9178 119.061 47.9202 119.472C78.5185 132.25 113.739 118.808 128.105 88.8793C136.83 70.7042 136.232 49.5348 126.576 31.8864C123.02 33.0769 119.155 32.8532 115.722 31.2009C113.22 30.0032 111.136 28.12 109.694 25.7895C108.15 26.4966 106.477 26.9223 104.783 27.0522C102.259 27.247 99.713 26.7636 97.4198 25.6668C94.6001 24.3104 92.3285 22.117 90.8862 19.3824C87.8573 19.9668 84.7204 19.5628 81.9007 18.2135C81.093 17.8239 80.3286 17.3693 79.6146 16.8499C77.7757 18.5743 75.4969 19.8081 73.0161 20.3997C69.807 21.1573 66.396 20.7894 63.4177 19.3607C61.5715 18.4733 59.9345 17.2034 58.622 15.6449C56.2639 15.7387 53.9202 15.2553 51.7711 14.2235C48.2447 12.5352 45.5981 9.5192 44.3433 5.89716Z" fill="#04E069"/>
<path d="M50.1334 43.2244C52.4286 40.928 52.4286 37.2048 50.1334 34.9084C47.8382 32.612 44.1169 32.612 41.8216 34.9084C39.5264 37.2048 39.5264 40.928 41.8216 43.2244C44.1169 45.5209 47.8382 45.5208 50.1334 43.2244Z" fill="#04E069"/>
<path d="M108.159 77.6248C110.454 75.3284 110.454 71.6052 108.159 69.3088C105.863 67.0124 102.142 67.0124 99.8468 69.3088C97.5516 71.6052 97.5516 75.3284 99.8468 77.6248C102.142 79.9212 105.863 79.9212 108.159 77.6248Z" fill="#04E069"/>
<path d="M71.1185 76.2972C73.4137 74.0008 73.4137 70.2775 71.1185 67.9811C68.8233 65.6847 65.102 65.6847 62.8067 67.9811C60.5115 70.2775 60.5115 74.0008 62.8067 76.2972C65.102 78.5936 68.8233 78.5936 71.1185 76.2972Z" fill="#04E069"/>
<path d="M95.1065 48.5218C97.4017 46.2254 97.4017 42.5022 95.1065 40.2057C92.8113 37.9093 89.09 37.9093 86.7948 40.2057C84.4996 42.5022 84.4996 46.2254 86.7948 48.5218C89.09 50.8182 92.8113 50.8182 95.1065 48.5218Z" fill="#04E069"/>
<path d="M34.87 75.0413C37.1652 72.7449 37.1652 69.0217 34.87 66.7253C32.5747 64.4288 28.8534 64.4288 26.5582 66.7253C24.263 69.0217 24.263 72.7449 26.5582 75.0413C28.8534 77.3378 32.5747 77.3378 34.87 75.0413Z" fill="#04E069"/>
<path d="M55.6005 115.288C58.8465 115.288 61.4778 112.655 61.4778 109.408C61.4778 106.16 58.8465 103.527 55.6005 103.527C52.3545 103.527 49.7231 106.16 49.7231 109.408C49.7231 112.655 52.3545 115.288 55.6005 115.288Z" fill="#04E069"/>
</g>
<g filter="url(#filter1_d)">
<path d="M77.3738 83.3169C77.9027 83.3169 84.423 89.133 84.423 89.133L90.5868 91.9518L92.4613 95.4323L105.559 91.25L113.661 93.718L117.277 99.0163H126.874H130.571L132.555 103.941H143.077L146.602 109.757L151.184 124.564L148.936 146.419L132.509 169.684L107.67 181.137L89.7014 180.079L75.4303 175.851L58.8708 162.101L48.6592 141.207V121.561L54.823 101.824L68.0361 88.4254L77.3738 83.3169Z" fill="#1C1E23"/>
<path d="M75.9305 177.788C69.8414 174.86 64.4424 170.879 59.8597 165.92C57.3586 163.21 55.1219 160.23 53.2187 157.055C51.3385 153.914 49.7688 150.566 48.5556 147.102C47.3424 143.634 46.4799 140.038 45.9854 136.414C45.491 132.744 45.376 129.021 45.6405 125.34C46.1982 117.648 48.3716 110.285 52.109 103.462C54.9724 98.2382 58.6408 93.5612 63.0221 89.5745C67.2713 85.7029 72.1011 82.5561 77.3737 80.209C78.0637 79.9041 78.8399 79.9328 79.5011 80.2953C80.1623 80.6577 80.6051 81.2962 80.7201 82.0384C81.0938 84.5121 82.6578 86.6291 84.9117 87.7106C86.2169 88.3377 87.6601 88.5735 89.0861 88.4009C89.96 88.2916 90.8168 88.6713 91.3285 89.3904C92.0587 90.4202 93.0534 91.2543 94.2034 91.8066C97.3485 93.3196 101.201 92.4337 103.363 89.7011C103.783 89.1718 104.415 88.8382 105.088 88.7979C105.766 88.7576 106.433 89.005 106.916 89.4825C107.503 90.0577 108.187 90.5352 108.934 90.8977C110.694 91.7433 112.678 91.8756 114.529 91.2658C115.754 90.8631 117.065 91.4959 117.519 92.704C118.203 94.5277 119.549 95.9946 121.308 96.8403C123.711 97.9966 126.483 97.8068 128.714 96.3398C129.306 95.9486 130.042 95.8451 130.72 96.0464C131.405 96.2535 131.951 96.7483 132.233 97.4041C132.946 99.0896 134.251 100.453 135.901 101.247C137.988 102.248 140.386 102.242 142.473 101.224C143.594 100.677 144.969 101.092 145.595 102.167C149.942 109.612 152.466 118.097 152.898 126.697C153.116 131.075 152.794 135.47 151.943 139.762C151.069 144.18 149.626 148.5 147.659 152.602C141.662 165.103 131.226 174.687 118.272 179.6C111.97 181.987 105.375 183.167 98.6652 183.103C91.7425 183.034 84.9807 181.642 78.5581 178.961C77.6669 178.593 76.793 178.202 75.9305 177.788ZM77.2529 84.7019C68.036 89.2236 60.5842 96.3456 55.6336 105.395C48.8776 117.729 47.6816 132.45 52.3447 145.768C56.7261 158.274 65.9143 168.514 77.7532 174.204C78.5236 174.572 79.3056 174.929 80.1048 175.257C104.501 185.445 132.583 174.727 144.037 150.865C150.994 136.374 150.517 119.495 142.818 105.423C139.983 106.373 136.902 106.194 134.165 104.877C132.169 103.922 130.508 102.421 129.358 100.562C128.127 101.126 126.793 101.466 125.442 101.569C123.43 101.724 121.4 101.339 119.572 100.465C117.323 99.383 115.512 97.6342 114.362 95.4539C111.947 95.9198 109.446 95.5977 107.198 94.5219C106.554 94.2113 105.945 93.8488 105.375 93.4346C103.909 94.8096 102.092 95.7933 100.114 96.265C97.5555 96.8691 94.8359 96.5757 92.4612 95.4366C90.9892 94.729 89.684 93.7165 88.6376 92.4739C86.7574 92.5487 84.8887 92.1633 83.1752 91.3406C80.3636 89.9945 78.2534 87.5898 77.2529 84.7019Z" fill="#04E069"/>
<path d="M81.8693 114.463C83.6993 112.632 83.6993 109.664 81.8693 107.833C80.0393 106.002 77.0723 106.002 75.2423 107.833C73.4122 109.664 73.4122 112.632 75.2423 114.463C77.0723 116.294 80.0393 116.294 81.8693 114.463Z" fill="#04E069"/>
<path d="M128.134 141.892C129.964 140.061 129.964 137.092 128.134 135.261C126.304 133.43 123.337 133.43 121.507 135.261C119.677 137.092 119.677 140.061 121.507 141.892C123.337 143.723 126.304 143.723 128.134 141.892Z" fill="#04E069"/>
<path d="M98.6013 140.832C100.431 139.001 100.431 136.033 98.6013 134.202C96.7712 132.371 93.8042 132.371 91.9742 134.202C90.1442 136.033 90.1442 139.001 91.9742 140.832C93.8042 142.663 96.7712 142.663 98.6013 140.832Z" fill="#04E069"/>
<path d="M117.727 118.687C119.557 116.856 119.557 113.887 117.727 112.056C115.897 110.225 112.93 110.225 111.1 112.056C109.27 113.887 109.27 116.856 111.1 118.687C112.93 120.518 115.897 120.518 117.727 118.687Z" fill="#04E069"/>
<path d="M69.6997 139.831C71.5297 138 71.5297 135.032 69.6997 133.201C67.8696 131.37 64.9026 131.37 63.0726 133.201C61.2426 135.032 61.2426 138 63.0726 139.831C64.9026 141.662 67.8696 141.662 69.6997 139.831Z" fill="#04E069"/>
<path d="M86.2286 171.921C88.8166 171.921 90.9147 169.821 90.9147 167.232C90.9147 164.643 88.8166 162.543 86.2286 162.543C83.6405 162.543 81.5425 164.643 81.5425 167.232C81.5425 169.821 83.6405 171.921 86.2286 171.921Z" fill="#04E069"/>
</g>
<defs>
<filter id="filter0_d" x="0.52124" y="0" width="142.779" height="137.316" filterUnits="userSpaceOnUse" color-interpolation-filters="sRGB">
<feFlood flood-opacity="0" result="BackgroundImageFix"/>
<feColorMatrix in="SourceAlpha" type="matrix" values="0 0 0 0 0 0 0 0 0 0 0 0 0 0 0 0 0 0 127 0"/>
<feOffset dy="4"/>
<feGaussianBlur stdDeviation="2"/>
<feColorMatrix type="matrix" values="0 0 0 0 0 0 0 0 0 0 0 0 0 0 0 0 0 0 0.25 0"/>
<feBlend mode="normal" in2="BackgroundImageFix" result="effect1_dropShadow"/>
<feBlend mode="normal" in="SourceGraphic" in2="effect1_dropShadow" result="shape"/>
</filter>
<filter id="filter1_d" x="41.5022" y="80" width="115.462" height="111.106" filterUnits="userSpaceOnUse" color-interpolation-filters="sRGB">
<feFlood flood-opacity="0" result="BackgroundImageFix"/>
<feColorMatrix in="SourceAlpha" type="matrix" values="0 0 0 0 0 0 0 0 0 0 0 0 0 0 0 0 0 0 127 0"/>
<feOffset dy="4"/>
<feGaussianBlur stdDeviation="2"/>
<feColorMatrix type="matrix" values="0 0 0 0 0 0 0 0 0 0 0 0 0 0 0 0 0 0 0.25 0"/>
<feBlend mode="normal" in2="BackgroundImageFix" result="effect1_dropShadow"/>
<feBlend mode="normal" in="SourceGraphic" in2="effect1_dropShadow" result="shape"/>
</filter>
</defs>
</svg>
