<svg width="28" height="40" viewBox="0 0 28 40" fill="none" xmlns="http://www.w3.org/2000/svg">
<path d="M14.0008 11.9972C14.5312 11.9972 15.0399 12.2079 15.4149 12.5829C15.79 12.9579 16.0007 13.4665 16.0007 13.9968C16.0007 14.5271 16.2114 15.0357 16.5865 15.4107C16.9615 15.7856 17.4702 15.9963 18.0007 15.9963C18.5311 15.9963 19.0398 15.7856 19.4148 15.4107C19.7899 15.0357 20.0006 14.5271 20.0006 13.9968C20.0005 12.9982 19.7512 12.0155 19.2751 11.1377C18.799 10.2599 18.1113 9.51481 17.2743 8.97C16.4373 8.42519 15.4775 8.0979 14.482 8.01781C13.4865 7.93772 12.4867 8.10736 11.5733 8.51135C10.66 8.91535 9.86196 9.54091 9.25162 10.3313C8.64128 11.1217 8.23795 12.0519 8.07819 13.0376C7.91844 14.0233 8.00733 15.0333 8.33679 15.9759C8.66625 16.9186 9.22587 17.7641 9.96489 18.4358C9.98489 18.4557 10.2889 18.7757 10.3529 18.8677C10.5791 19.1969 10.7002 19.5869 10.7002 19.9864C10.7002 20.3858 10.5791 20.7759 10.3529 21.1051C10.191 21.3209 10.0745 21.5672 10.0103 21.8292C9.94615 22.0912 9.93565 22.3634 9.97947 22.6296C10.0233 22.8957 10.1205 23.1502 10.2653 23.3778C10.41 23.6054 10.5994 23.8014 10.8219 23.9539C11.0444 24.1065 11.2954 24.2124 11.56 24.2654C11.8245 24.3184 12.097 24.3173 12.3611 24.2623C12.6252 24.2072 12.8754 24.0993 13.0967 23.945C13.318 23.7908 13.5058 23.5933 13.6488 23.3646C14.3346 22.3677 14.7009 21.1858 14.6991 19.9758C14.6973 18.7659 14.3275 17.5851 13.6388 16.5902C13.3317 16.2022 13.0046 15.8304 12.6588 15.4764C12.5386 15.3684 12.4313 15.247 12.3388 15.1145C12.1358 14.8134 12.0186 14.4628 11.9998 14.1002C11.9811 13.7375 12.0614 13.3766 12.2322 13.0562C12.4031 12.7358 12.6579 12.4679 12.9695 12.2814C13.2811 12.0948 13.6376 11.9966 14.0008 11.9972ZM14.0008 4.98413e-08C11.8533 -0.000181129 9.73449 0.493593 7.8084 1.44312C5.8823 2.39264 4.20052 3.77247 2.89316 5.47583C1.5858 7.17919 0.687916 9.16043 0.268975 11.2663C-0.149965 13.3721 -0.0787307 15.546 0.477168 17.6199C0.614546 18.1322 0.94984 18.569 1.40929 18.8341C1.86874 19.0992 2.41471 19.171 2.92709 19.0336C3.43948 18.8963 3.8763 18.561 4.14147 18.1017C4.40664 17.6423 4.47843 17.0965 4.34105 16.5842C3.9731 15.2097 3.90285 13.7725 4.13498 12.3686C4.36712 10.9648 4.8963 9.62665 5.68715 8.44368C6.47801 7.26071 7.51232 6.26014 8.72095 5.50885C9.92957 4.75757 11.2847 4.27288 12.6957 4.08717C14.1067 3.90147 15.5411 4.01903 16.903 4.432C18.2649 4.84497 19.523 5.54384 20.5931 6.48189C21.6632 7.41993 22.5208 8.57555 23.1084 9.8715C23.696 11.1675 24.0001 12.5739 24.0005 13.9968C23.9919 15.8022 23.5055 17.5731 22.5905 19.1296L15.4607 33.9922C15.1092 34.5988 14.6048 35.1027 13.9977 35.4536C13.3906 35.8044 12.7021 35.99 12.0008 35.9917C10.9443 35.9777 9.93506 35.5519 9.18794 34.8049C8.44083 34.058 8.01493 33.0489 8.00095 31.9926C8.00118 31.291 8.18677 30.6019 8.53893 29.9951C8.80467 29.5356 8.87695 28.9893 8.73986 28.4765C8.60278 27.9637 8.26756 27.5264 7.80795 27.2607C7.34834 26.995 6.802 26.9228 6.2891 27.0598C5.7762 27.1969 5.33877 27.532 5.07303 27.9915C4.54218 28.9065 4.19817 29.9176 4.06091 30.9664C3.92365 32.0152 3.99587 33.0808 4.2734 34.1015C4.55092 35.1221 5.02824 36.0776 5.67769 36.9126C6.32715 37.7476 7.13584 38.4454 8.05693 38.9657C8.97802 39.486 9.99321 39.8184 11.0437 39.9437C12.0942 40.069 13.1591 39.9847 14.1768 39.6956C15.1944 39.4065 16.1446 38.9185 16.9723 38.2597C17.8 37.6009 18.4887 36.7845 18.9986 35.8577L26.1244 20.9952C27.3531 18.8674 28 16.4538 28 13.9969C28 11.5399 27.3532 9.12631 26.1245 6.99854C24.8958 4.87077 23.1286 3.10384 21.0004 1.87535C18.8723 0.646846 16.4582 6.24644e-05 14.0008 4.98413e-08Z" fill="#0C1A21"/>
</svg>
