<svg width="46" height="30" viewBox="0 0 46 30" fill="none" xmlns="http://www.w3.org/2000/svg">
<path d="M23 6.25C22.1536 6.26294 21.3134 6.39449 20.5051 6.64062C20.879 7.28384 21.0781 8.01009 21.0833 8.75C21.0833 9.32453 20.9677 9.89344 20.7429 10.4242C20.5181 10.955 20.1887 11.4373 19.7734 11.8436C19.3582 12.2498 18.8651 12.5721 18.3225 12.792C17.78 13.0118 17.1984 13.125 16.6111 13.125C15.8547 13.1199 15.1124 12.9251 14.4548 12.5594C13.9361 14.3194 13.9966 16.1944 14.6277 17.9189C15.2588 19.6434 16.4285 21.13 17.9713 22.168C19.514 23.206 21.3515 23.7429 23.2234 23.7025C25.0954 23.6622 26.9069 23.0467 28.4014 21.9432C29.8959 20.8397 30.9976 19.3042 31.5505 17.5542C32.1033 15.8042 32.0793 13.9283 31.4818 12.1924C30.8843 10.4565 29.7437 8.94843 28.2214 7.88192C26.6991 6.8154 24.8724 6.24447 23 6.25ZM45.7221 13.8594C41.3913 5.59297 32.8173 0 23 0C13.1827 0 4.60635 5.59688 0.277874 13.8602C0.0951844 14.2137 0 14.6043 0 15.0004C0 15.3965 0.0951844 15.7871 0.277874 16.1406C4.60875 24.407 13.1827 30 23 30C32.8173 30 41.3936 24.4031 45.7221 16.1398C45.9048 15.7863 46 15.3957 46 14.9996C46 14.6035 45.9048 14.2129 45.7221 13.8594ZM23 26.25C15.1217 26.25 7.89903 21.9531 3.99861 15C7.89903 8.04688 15.1209 3.75 23 3.75C30.8791 3.75 38.101 8.04688 42.0014 15C38.1018 21.9531 30.8791 26.25 23 26.25Z" fill="#0C1A21"/>
</svg>
