<svg width="54" height="46" viewBox="0 0 54 46" fill="none" xmlns="http://www.w3.org/2000/svg">
<path d="M35.0833 22.9212L25.9166 13.7545V20.6295H0V25.2128H25.9166V32.0878L35.0833 22.9212ZM53.4166 22.9212C53.4176 28.3971 51.4578 33.6925 47.892 37.8483C44.3262 42.0042 39.3901 44.7458 33.9776 45.5768C28.565 46.4078 23.0338 45.2732 18.3855 42.3785C13.7372 39.4837 10.2792 35.0202 8.63742 29.7962H13.5187C15.1141 33.7403 18.0317 37.0067 21.7713 39.0356C25.511 41.0645 29.8399 41.7296 34.0161 40.9169C38.1923 40.1042 41.9559 37.8643 44.6618 34.5811C47.3677 31.2979 48.8475 27.1757 48.8475 22.9212C48.8475 18.6666 47.3677 14.5444 44.6618 11.2612C41.9559 7.97799 38.1923 5.73809 34.0161 4.9254C29.8399 4.1127 25.511 4.7778 21.7713 6.80672C18.0317 8.83564 15.1141 12.1021 13.5187 16.0462H8.63742C10.2792 10.8221 13.7372 6.35856 18.3855 3.46381C23.0338 0.569066 28.565 -0.565531 33.9776 0.265464C39.3901 1.09646 44.3262 3.83811 47.892 7.99398C51.4578 12.1498 53.4176 17.4452 53.4166 22.9212Z" fill="white"/>
</svg>
