<svg width="42" height="42" viewBox="0 0 42 42" fill="none" xmlns="http://www.w3.org/2000/svg">
<path fill-rule="evenodd" clip-rule="evenodd" d="M42 21C42 26.5695 39.7875 31.911 35.8492 35.8492C31.911 39.7875 26.5695 42 21 42C15.4305 42 10.089 39.7875 6.15076 35.8492C2.21249 31.911 0 26.5695 0 21C0 15.4305 2.21249 10.089 6.15076 6.15076C10.089 2.21249 15.4305 0 21 0C26.5695 0 31.911 2.21249 35.8492 6.15076C39.7875 10.089 42 15.4305 42 21ZM20.0707 27.9457C19.8243 28.1922 19.6858 28.5265 19.6858 28.875C19.6858 29.2235 19.8243 29.5578 20.0707 29.8043C20.3172 30.0507 20.6515 30.1892 21 30.1892C21.3485 30.1892 21.6828 30.0507 21.9293 29.8043L29.8043 21.9293C29.9265 21.8073 30.0235 21.6625 30.0896 21.503C30.1558 21.3436 30.1898 21.1726 30.1898 21C30.1898 20.8274 30.1558 20.6564 30.0896 20.497C30.0235 20.3375 29.9265 20.1927 29.8043 20.0707L21.9293 12.1957C21.8072 12.0737 21.6623 11.9769 21.5029 11.9109C21.3435 11.8448 21.1726 11.8108 21 11.8108C20.8274 11.8108 20.6565 11.8448 20.4971 11.9109C20.3377 11.9769 20.1928 12.0737 20.0707 12.1957C19.9487 12.3178 19.8519 12.4627 19.7859 12.6221C19.7198 12.7815 19.6858 12.9524 19.6858 13.125C19.6858 13.2976 19.7198 13.4685 19.7859 13.6279C19.8519 13.7873 19.9487 13.9322 20.0707 14.0543L25.7066 19.6875H13.125C12.7769 19.6875 12.4431 19.8258 12.1969 20.0719C11.9508 20.3181 11.8125 20.6519 11.8125 21C11.8125 21.3481 11.9508 21.6819 12.1969 21.9281C12.4431 22.1742 12.7769 22.3125 13.125 22.3125H25.7066L20.0707 27.9457Z" fill="#0C1A21"/>
</svg>
