<svg width="69" height="71" viewBox="0 0 69 71" fill="none" xmlns="http://www.w3.org/2000/svg">
<g clip-path="url(#clip0)">
<path d="M42.9033 25.5087L42.8403 25.4999H28.5632H28.5092C28.0321 25.491 27.3209 25.491 26.6188 25.8801C25.6916 26.3664 25.0344 27.3036 24.8994 28.3381L23.252 41.2914L23.243 41.3798C23.243 41.4771 23.216 41.6274 23.189 41.7777C23.09 42.4055 22.928 43.3516 23.4591 44.3242C23.8191 45.005 24.4583 45.5709 25.1604 45.8361C25.7366 46.066 26.2677 46.066 26.6188 46.066H26.6728H26.7628C26.7898 46.066 26.8168 46.066 26.8348 46.066H40.7338C41.2019 46.066 41.8051 46.0218 42.4082 45.7035C43.1103 45.3498 43.6775 44.7397 43.9745 44.0147C44.1636 43.5549 44.1996 43.1305 44.2266 42.8476C44.2536 42.6354 44.7577 38.4355 45.7389 30.354L45.8289 29.5848C45.901 29.0543 46.036 28.0817 45.5139 27.1887C45.0008 26.278 44.0285 25.6413 42.9033 25.5087ZM35.7197 42.3966C34.2614 42.3966 32.8571 42.4055 31.4168 42.4143C29.9675 42.4232 28.4732 42.432 26.8438 42.432C26.8438 42.4055 26.8528 42.3878 26.8528 42.3613C26.8888 42.1225 26.9338 41.8661 26.9428 41.6451L28.5362 29.1427C29.1213 29.1427 39.6536 29.1516 42.1471 29.1516C42.1471 29.1604 42.1471 29.1692 42.1471 29.1692L40.5808 42.0695C40.5628 42.1933 40.5448 42.3171 40.5358 42.4232C38.7894 42.4055 37.2231 42.3966 35.7197 42.3966Z" fill="white"/>
<path d="M68.1367 18.3107C67.4615 17.568 66.4623 17.1613 65.5261 17.2232C61.3492 17.2232 59.7828 17.2232 59.1347 17.2232H59.0807C58.6486 17.2232 58.6486 17.2232 58.4775 17.2232H58.2525C57.4243 17.232 56.5691 17.232 55.741 17.2055L57.3523 4.33175V4.29638C57.3613 4.23449 57.3703 4.14607 57.3793 4.05765C57.4513 3.58903 57.5593 2.81095 57.2083 2.02402C56.7852 0.980686 55.795 0.220287 54.6427 0.0434496L54.5797 0.0346078C54.2106 -0.000759641 53.8595 -0.00075964 53.5265 -0.00075964H53.4275C53.2744 -0.00075964 49.6106 -0.00075964 49.4666 -0.00075964C49.0885 -0.00075964 48.7014 -0.000759638 48.2513 0.0434496L48.1703 0.0522915C47.0001 0.255654 46.0819 1.03374 45.6408 2.18318L45.5957 2.33349C45.4337 3.04084 45.3617 3.72166 45.2807 4.37596C45.2627 4.56163 44.6866 9.15055 43.7053 16.9756L43.6693 17.232C42.5441 17.232 30.7875 17.232 30.4095 17.232C30.2834 17.232 30.1664 17.232 30.0674 17.232C30.0674 17.2055 30.0764 17.1878 30.0764 17.1701C30.1034 17.0198 30.5085 13.7129 31.1386 8.68194L31.2196 8.00996C31.4627 6.02938 31.6967 4.16375 31.7147 4.07533C31.7777 3.60671 31.8948 2.82863 31.5437 2.04171C31.1116 0.998369 30.1304 0.23797 28.9691 0.0522915L28.9061 0.0434496C28.519 -0.000759638 28.159 -0.00075964 27.7629 -0.00075964C27.6729 -0.00075964 26.4036 -0.00075964 24.3691 -0.00075964H24.2791C24.1171 -0.00075964 23.9641 -0.00075964 23.829 -0.00075964H23.802C23.4059 -0.00075964 23.0369 -0.00960149 22.5958 0.0434496L22.5057 0.0522915C21.3355 0.255654 20.4173 1.03374 19.9762 2.18318L19.9672 2.2097L19.9312 2.32465C19.7691 3.03199 19.6971 3.71282 19.6161 4.36711C19.5801 4.68542 18.1848 15.7908 18.0948 16.5423C18.0588 16.7545 18.0408 16.9491 18.0228 17.1259C18.0228 17.1613 18.0138 17.1878 18.0138 17.232H17.9688C9.15584 17.1966 7.84155 17.2143 7.57149 17.232C6.96836 17.2143 5.89713 17.2143 5.01494 17.9394C4.43881 18.3903 4.03373 19.0092 3.85369 19.7342L3.84468 19.7608C3.78167 20.0526 3.75467 20.3355 3.73666 20.5831L3.72766 20.7069C3.50261 23.0676 3.4396 23.7308 3.43059 23.8722C3.35858 24.5619 3.28656 25.2781 3.26856 26.1269V26.2065L3.27756 26.2861C3.42159 27.4974 4.26778 28.5496 5.43803 28.9563H5.44703C6.09517 29.1773 6.6983 29.1597 7.1394 29.1508H7.1484C7.35545 29.1508 11.9284 29.1508 15.1151 29.1508H15.2412C15.6643 29.1508 16.0873 29.1508 16.4924 29.1508C16.3934 29.9289 14.8901 42.281 14.8811 42.4224C14.8811 42.4313 14.8811 42.4401 14.8811 42.4401H3.77267C2.5304 42.449 1.37815 43.1828 0.838032 44.3146L0.82903 44.3323C0.549969 44.9512 0.513962 45.5171 0.486956 45.9592C0.477954 46.1006 0.261907 48.373 0.0638639 50.4597C-0.134179 51.4234 0.144882 52.4579 0.820028 53.2272C1.49517 53.9964 2.50339 54.4297 3.4486 54.3589H3.60163C7.80554 54.3589 10.3171 54.3589 10.6862 54.3589C11.5414 54.3501 12.4866 54.3412 13.3417 54.3678L11.7934 66.8701C11.7124 67.4095 11.5414 68.4882 12.2075 69.4697C12.7926 70.4069 13.8459 70.9904 14.9531 71.0081H19.301H19.319C19.4631 71.0081 19.5981 71.0081 19.7241 71.0081C19.8232 71.0081 19.9222 71.0081 20.0302 71.0081C20.3273 71.0081 20.6873 70.9993 21.1104 70.9109L21.1644 70.902C22.2537 70.6191 23.1269 69.7968 23.4869 68.6916L23.523 68.5589C23.64 67.9489 25.1253 56.4898 25.3954 54.3678C27.1958 54.3589 34.1813 54.3589 38.7363 54.3589C38.8353 54.3589 38.9253 54.3678 39.0063 54.3589C39.0063 54.3855 38.9973 54.4031 38.9973 54.4208C38.9613 54.6595 37.521 66.375 37.467 66.8613C37.386 67.3918 37.2239 68.4794 37.8811 69.452C38.4662 70.3892 39.5104 70.9728 40.6267 70.9904H44.9746H44.9926C45.1186 70.9904 45.2537 70.9904 45.3887 70.9904C45.7938 70.9993 46.2439 71.0081 46.784 70.8932L46.838 70.8843C47.9363 70.6014 48.8004 69.7791 49.1605 68.6739L49.1965 68.5501C49.3226 67.9046 50.9339 55.42 51.0239 54.6772C51.0419 54.5711 51.0599 54.4562 51.0689 54.3501C51.0959 54.3501 51.123 54.3501 51.15 54.3501H51.159C51.375 54.3589 51.591 54.3678 51.7891 54.3501H61.4932C62.1233 54.3589 63.2846 54.3855 64.2118 53.5278C64.7519 53.0503 65.121 52.4314 65.265 51.7152L65.274 51.6887C65.301 51.5295 65.391 50.6277 65.6701 47.6745C65.7151 47.2147 65.7691 46.5958 65.7781 46.5251C65.8502 45.8973 65.9852 44.7213 65.166 43.7133C64.7069 43.1209 64.0678 42.7054 63.3656 42.5374C62.9245 42.4224 62.5374 42.4313 62.2584 42.4313H62.1954C62.0603 42.4313 58.5406 42.4313 52.5273 42.4313C52.7523 40.5745 53.4905 34.7477 54.2016 29.142H54.2466C54.4087 29.142 61.2321 29.142 61.3042 29.142H61.3222C61.8173 29.1331 62.3574 29.1331 62.8345 29.142C63.8157 29.1508 64.8329 29.1597 65.8682 29.0624C65.9942 29.0536 66.1112 29.027 66.2372 28.9917L66.2552 28.9828C67.0384 28.7352 67.7316 28.1782 68.1186 27.4974C68.4877 26.8785 68.5417 26.2507 68.5687 25.8705L68.9648 21.0428C69.1269 20.0791 68.8208 19.0623 68.1367 18.3107ZM51.177 26.8254C50.6549 27.5062 50.5648 28.2224 50.5108 28.6999V28.7264C49.4486 37.8247 49.1065 40.3269 48.9985 40.9724C48.9535 41.0696 48.9265 41.1757 48.9175 41.2818C48.8545 41.7681 48.7824 42.281 48.7554 42.8822V42.9264V42.9706C48.8184 44.6506 50.3218 46.0741 52.0411 46.0741H61.8713C61.9433 46.0741 62.0243 46.0741 62.0963 46.0741C62.0963 46.0918 62.0963 46.1095 62.0873 46.1183C62.0693 46.2598 61.7273 49.8938 61.6552 50.6188L61.6462 50.6807C61.6462 50.6896 61.6462 50.6984 61.6462 50.7072C61.6102 50.7072 61.5742 50.7072 61.5472 50.7072C61.4572 50.7072 58.2075 50.7072 51.8701 50.7072H51.6901H51.6091C51.519 50.7161 51.411 50.7072 51.285 50.7072H51.267C50.6999 50.6896 49.7457 50.663 48.8725 51.2466C48.2693 51.6356 47.8102 52.228 47.5672 52.9089C47.4412 53.2802 47.4051 53.6162 47.3691 53.8726C47.3511 53.9876 46.874 57.7011 46.4869 60.6808L46.3969 61.4059C45.9738 64.6597 45.7848 66.1274 45.7758 66.1893C45.7308 66.5872 45.6768 66.9851 45.6228 67.3476C45.5687 67.3476 45.5147 67.3476 45.4517 67.3476C45.3437 67.3476 45.2357 67.3476 45.1276 67.3476H41.1218L42.5891 55.4288L42.5981 55.3581C42.6071 55.2696 42.6251 55.1193 42.6521 54.9779C42.7511 54.3324 42.9222 53.2625 42.265 52.2634C41.8419 51.5826 41.1578 51.0698 40.3836 50.8487C39.8615 50.6984 39.3844 50.7072 39.0963 50.7161C38.8713 50.7161 34.0822 50.7161 25.9175 50.7161H25.6024C25.3143 50.7161 25.0623 50.7161 24.7652 50.7249H24.7112C23.91 50.8045 23.1359 51.1847 22.6048 51.7683C22.1007 52.2988 21.7946 53.0061 21.7316 53.7577C21.1104 58.5411 20.7053 61.6446 20.4443 63.6782C20.1382 66.0655 20.0212 66.9674 19.9672 67.3564C19.9222 67.3564 19.8862 67.3564 19.8412 67.3564H19.8052C19.7691 67.3564 19.6611 67.3564 16.6995 67.3564H15.4662L17.0325 54.7126C17.0956 54.2528 17.1946 53.5013 16.8525 52.7232C16.4564 51.7594 15.5832 51.0521 14.467 50.7868L14.431 50.778L14.2689 50.7603C12.9997 50.6896 11.7034 50.6984 10.6682 50.7072C10.1371 50.7072 5.23999 50.7072 3.75467 50.7072L4.12375 46.8434C4.15975 46.6223 4.16876 46.4101 4.18676 46.1802C4.18676 46.1448 4.18676 46.1095 4.19576 46.0741H14.8001C15.9703 46.1714 17.0956 45.7293 17.7617 44.907C18.4188 44.1643 18.5089 43.2978 18.5629 42.7849C18.5989 42.4755 20.1112 30.0527 20.1562 29.6283C20.2282 29.1685 20.3273 28.4877 20.0662 27.7273C19.6701 26.5602 18.5989 25.7025 17.3296 25.5345L17.2216 25.5257C16.5104 25.4991 8.23764 25.508 7.69752 25.508C7.46347 25.4991 7.23842 25.4991 7.04038 25.508H7.02237C7.01337 25.508 7.00437 25.508 6.99537 25.508C7.02237 25.1012 7.06738 24.6857 7.10339 24.279V24.2348C7.1394 23.8545 7.41846 20.9279 7.41846 20.9014V20.8748C7.45447 20.8748 7.49048 20.8748 7.50848 20.8748C7.69752 20.8837 17.5457 20.8748 17.9147 20.8748C18.1758 20.8837 18.4639 20.8837 18.7969 20.8395H18.8239C19.5351 20.7334 20.2192 20.3974 20.7053 19.9022C21.5335 19.0888 21.6416 18.0897 21.6956 17.4884C21.7226 17.2497 22.3527 12.2187 22.7758 8.8853C23.1359 6.03822 23.2799 4.84457 23.2889 4.79152C23.3339 4.3848 23.3789 3.99576 23.4329 3.65977C23.523 3.65977 23.622 3.65977 23.73 3.65977H23.766C23.946 3.65977 26.9977 3.65977 27.2228 3.65977C27.4118 3.65977 27.6008 3.65977 27.7809 3.65977H27.8079C27.8799 3.65977 27.9609 3.65977 28.0329 3.65977C27.9699 4.11954 27.7089 6.25927 27.2048 10.3177L27.1777 10.5564C26.8357 13.3239 26.4396 16.4628 26.4216 16.6308C26.3226 17.2674 26.1425 18.4345 26.9077 19.469C27.3758 20.1498 28.0959 20.6184 28.9331 20.8041L28.9601 20.813C29.3652 20.8925 29.7253 20.8837 30.0134 20.8837H30.0584C30.3194 20.8837 43.3363 20.8837 43.7143 20.8837H43.7233C44.0654 20.8925 44.5785 20.8925 45.1186 20.7069C45.8928 20.4504 46.559 19.9022 46.937 19.2037C47.2611 18.6467 47.3241 18.0808 47.3601 17.7448L48.8455 5.87023C48.8905 5.53424 48.9355 5.16288 48.9805 4.80036C49.0255 4.41132 49.0705 4.01344 49.1245 3.65977C49.2055 3.65977 49.2866 3.65977 49.3676 3.65977H49.4486C49.5656 3.65977 51.6271 3.65977 53.1664 3.65977H53.4725H53.4815C53.5535 3.65977 53.6345 3.65977 53.7065 3.65977C53.5625 4.82689 52.0952 16.5512 52.0502 16.8783V16.8872C51.9871 17.3293 51.8881 18.0543 52.2122 18.8059C52.5813 19.7519 53.3914 20.477 54.3907 20.7599C54.5167 20.7953 54.6427 20.813 54.7597 20.8218C55.948 20.9014 57.1363 20.8925 58.2885 20.8837H58.3425C58.8736 20.8837 63.8067 20.8837 65.256 20.8837L64.8689 25.4991C64.1938 25.5345 63.5006 25.5257 62.8615 25.5168C62.5464 25.5168 59.8188 25.5168 54.9488 25.5168H54.6337H54.6247C54.5077 25.5168 54.3997 25.5168 54.3006 25.5168H54.2826C53.9766 25.5168 53.6525 25.508 53.2564 25.5699L53.2114 25.5787C52.4012 25.7113 51.6451 26.1888 51.177 26.8254ZM40.6807 67.3476H40.6717H40.6807Z" fill="white"/>
</g>
<defs>
<clipPath id="clip0">
<rect width="69" height="71" fill="white"/>
</clipPath>
</defs>
</svg>
