<svg width="61" height="61" viewBox="0 0 61 61" fill="none" xmlns="http://www.w3.org/2000/svg">
<path d="M30.5006 0C22.2103 0 21.1771 0.0400313 17.9327 0.177281C14.6749 0.337406 12.4713 0.842562 10.5269 1.59744C8.4919 2.3657 6.64894 3.56853 5.12649 5.12209C3.56859 6.64099 2.36509 8.48497 1.60183 10.5225C0.846957 12.4669 0.341801 14.6705 0.181676 17.9283C0.0348945 21.1746 0.00439453 22.2059 0.00439453 30.4962C0.00439453 38.7865 0.0444258 39.8197 0.181676 43.0641C0.341801 46.3123 0.846957 48.5255 1.60183 50.4699C2.37009 52.5049 3.57292 54.3478 5.12649 55.8703C6.64538 57.4282 8.48937 58.6317 10.5269 59.3949C12.4713 60.1403 14.6844 60.655 17.9327 60.8151C21.179 60.9619 22.2103 60.9924 30.5006 60.9924C38.7909 60.9924 39.8241 60.9523 43.0685 60.8151C46.3167 60.655 48.5299 60.1384 50.4743 59.3949C52.5093 58.6267 54.3522 57.4238 55.8747 55.8703C57.4346 54.353 58.6384 52.5086 59.3993 50.4699C60.1447 48.5255 60.6594 46.3123 60.8195 43.0641C60.9663 39.8177 60.9968 38.7865 60.9968 30.4962C60.9968 22.2059 60.9567 21.1727 60.8195 17.9283C60.6594 14.68 60.1428 12.4554 59.3993 10.5225C58.6311 8.4875 57.4282 6.64455 55.8747 5.12209C54.3574 3.56219 52.513 2.35837 50.4743 1.59744C48.5299 0.842562 46.3167 0.337406 43.0685 0.177281C39.8221 0.0305 38.7909 0 30.5006 0ZM30.5006 5.49C38.6422 5.49 39.6144 5.53003 42.8321 5.66728C45.8001 5.80644 47.4166 6.30206 48.4899 6.72144C49.8167 7.2112 51.0175 7.99071 52.005 9.00322C53.0158 9.98651 53.7924 11.1846 54.2772 12.5088C54.6966 13.582 55.1922 15.1985 55.3314 18.1666C55.4686 21.3843 55.5087 22.3584 55.5087 30.4981C55.5087 38.6378 55.4687 39.6119 55.32 42.8296C55.1598 45.7977 54.6642 47.4142 54.2467 48.4874C53.6691 49.919 53.0248 50.9198 51.9611 52.0025C50.9703 53.0087 49.7703 53.7844 48.446 54.2747C47.3861 54.6941 45.7468 55.1897 42.7673 55.3289C39.5324 55.4662 38.5793 55.5062 30.4167 55.5062C22.2541 55.5062 21.3029 55.4662 18.0642 55.3175C15.0962 55.1573 13.4587 54.6617 12.3855 54.2442C10.9367 53.6666 9.94358 53.0223 8.8799 51.9587C7.80668 50.8854 7.12424 49.8637 6.59811 48.4435C6.17111 47.3837 5.68311 45.7443 5.52489 42.7648C5.41624 39.568 5.36477 38.5768 5.36477 30.4523C5.36477 22.3317 5.41624 21.3386 5.52489 18.1017C5.68311 15.1223 6.17111 13.4867 6.59811 12.423C7.12424 10.9724 7.80858 9.98112 8.8799 8.90791C9.94168 7.84612 10.9367 7.15987 12.3855 6.62231C13.4587 6.20484 15.0561 5.70922 18.0356 5.56053C21.2705 5.44425 22.2236 5.40231 30.3748 5.40231L30.5006 5.49ZM30.5006 14.844C28.4444 14.8432 26.4082 15.2477 24.5084 16.0342C22.6086 16.8207 20.8824 17.9739 19.4284 19.4278C17.9745 20.8818 16.8213 22.608 16.0348 24.5078C15.2482 26.4076 14.8438 28.4438 14.8446 30.5C14.8438 32.5562 15.2482 34.5924 16.0348 36.4922C16.8213 38.392 17.9745 40.1182 19.4284 41.5722C20.8824 43.0261 22.6086 44.1793 24.5084 44.9658C26.4082 45.7523 28.4444 46.1568 30.5006 46.156C32.5568 46.1568 34.593 45.7523 36.4928 44.9658C38.3926 44.1793 40.1188 43.0261 41.5727 41.5722C43.0267 40.1182 44.1799 38.392 44.9664 36.4922C45.7529 34.5924 46.1574 32.5562 46.1566 30.5C46.1574 28.4438 45.7529 26.4076 44.9664 24.5078C44.1799 22.608 43.0267 20.8818 41.5727 19.4278C40.1188 17.9739 38.3926 16.8207 36.4928 16.0342C34.593 15.2477 32.5568 14.8432 30.5006 14.844ZM30.5006 40.666C24.881 40.666 20.3346 36.1196 20.3346 30.5C20.3346 24.8804 24.881 20.334 30.5006 20.334C36.1202 20.334 40.6666 24.8804 40.6666 30.5C40.6666 36.1196 36.1202 40.666 30.5006 40.666ZM50.4476 14.2187C50.4466 15.1903 50.0599 16.1217 49.3726 16.8083C48.6852 17.4949 47.7534 17.8806 46.7819 17.8806C46.3015 17.8806 45.8258 17.786 45.382 17.6022C44.9382 17.4183 44.5349 17.1489 44.1952 16.8092C43.8555 16.4695 43.5861 16.0662 43.4022 15.6224C43.2184 15.1786 43.1238 14.7029 43.1238 14.2225C43.1238 13.7421 43.2184 13.2665 43.4022 12.8226C43.5861 12.3788 43.8555 11.9756 44.1952 11.6359C44.5349 11.2962 44.9382 11.0267 45.382 10.8429C45.8258 10.6591 46.3015 10.5644 46.7819 10.5644C48.7968 10.5644 50.4476 12.2038 50.4476 14.2187Z" fill="white"/>
</svg>
