<svg width="125" height="81" viewBox="0 0 125 81" fill="none" xmlns="http://www.w3.org/2000/svg">
<path d="M41.7103 0H6.16748L17.1554 10.9144H41.0353C46.5054 10.9144 49.6798 13.6816 49.6798 18.8371C49.6798 24.1474 46.4958 26.9905 41.0353 26.9905H32.4767L28.0192 37.908H41.7103C54.9334 37.908 62.5431 30.7308 62.5431 18.3949C62.5463 6.72552 54.9366 0 41.7103 0Z" fill="white"/>
<path d="M31.3941 14.7399H20.836L7.53649 53.5103H15.9868L0 81L32.4225 42.2106H20.231L31.3941 14.7399Z" fill="white"/>
<path d="M35.4664 48.0389C35.4664 45.3316 35.4664 43.6163 35.4346 42.4538H39.0962C39.1755 43.356 39.2063 44.2618 39.1885 45.1674C39.8253 43.3004 41.2804 42.1789 43.541 42.1758V46.4373C40.8251 46.3773 39.2999 47.167 39.2999 50.2849V58.9343H35.4791L35.4664 48.0389Z" fill="white"/>
<path d="M57.2798 50.544C57.2798 56.5272 55.051 59.2408 50.9851 59.2408C46.9637 59.2408 44.7954 56.6504 44.7954 50.6325C44.7954 44.7946 47.2694 42.16 51.1857 42.16C55.1656 42.1727 57.2798 45.0379 57.2798 50.544ZM48.6671 50.6072C48.6671 54.1485 49.2625 56.0628 51.0933 56.0628C52.819 56.0628 53.4081 54.1674 53.4081 50.6578C53.4081 47.0123 52.7999 45.3633 51.0647 45.3633C49.3294 45.3633 48.6671 47.0881 48.6671 50.6198V50.6072Z" fill="white"/>
<path d="M60.3843 58.9376V45.575H58.4485V42.4539H60.3843V40.8491C60.3843 38.0976 61.642 36.1106 64.9374 36.1106C65.4736 36.1106 66.008 36.1732 66.5294 36.297V39.4876C66.2316 39.4203 65.9274 39.3854 65.622 39.3833C64.5235 39.3833 64.2306 39.9993 64.2306 41.1334V42.4697H66.5867V45.5908H64.2306V58.9533L60.3843 58.9376Z" fill="white"/>
<path d="M68.4556 42.4539H72.2764V58.9375H68.4556V42.4539ZM68.4842 36.3159H72.305V40.0751H68.4842V36.3159Z" fill="white"/>
<path d="M74.2568 42.4539H76.4347V38.3472H80.2554V42.4539H82.8217V45.575H80.2554V54.5939C80.2554 55.5416 80.4337 56.0976 81.6277 56.0976C81.9478 56.1108 82.2683 56.0875 82.5829 56.0281V58.827C81.8793 59.1271 80.8381 59.1618 80.2395 59.1618C77.5841 59.1618 76.4347 58.1889 76.4347 55.2257V45.575H74.2568V42.4539Z" fill="white"/>
<path d="M84.7769 37.39H91.3104C94.8987 37.39 97.586 39.5255 97.586 43.7996C97.586 47.9632 95.1503 50.1745 91.0079 50.1745H88.6709V58.9376H84.7769V37.39ZM88.6709 47.0692H90.5812C92.74 47.0692 93.6952 46.0109 93.6952 43.7333C93.6952 41.5789 92.5744 40.5048 90.7914 40.5048H88.6836L88.6709 47.0692Z" fill="white"/>
<path d="M110.341 55.3489C110.341 56.1576 110.408 58.192 110.468 58.9376H106.982C106.888 58.4319 106.835 57.9195 106.823 57.4054C106.186 58.4542 105.097 59.225 103.075 59.225C99.8912 59.225 98.6526 56.6978 98.6526 54.3381C98.6526 50.9611 100.986 48.9172 105.202 48.9172C105.762 48.9172 106.186 48.9172 106.565 48.9551V47.1545C106.565 46.2068 106.441 45.0664 104.775 45.0664C103.183 45.0664 102.999 46.1088 102.903 47.1924H99.2671C99.334 44.7663 100.48 42.1727 104.925 42.1727C108.491 42.1727 110.338 43.7775 110.338 46.9112L110.341 55.3489ZM106.663 51.7098C106.253 51.6529 105.839 51.6307 105.425 51.6434C103.241 51.6434 102.448 52.648 102.448 53.9937C102.448 54.9983 102.932 56.1324 104.358 56.1324C106.316 56.1324 106.667 54.6824 106.667 52.2342L106.663 51.7098Z" fill="white"/>
<path d="M115.935 42.4539C117.151 47.7547 118.317 52.2468 118.514 54.2369H118.546C118.919 51.8961 120.027 47.0818 121.151 42.4539H125L120.224 59.6862C118.804 64.8196 116.948 65.1166 114.636 65.1166C114.135 65.1201 113.634 65.0789 113.14 64.9933V61.7806C113.536 61.8274 113.935 61.8506 114.334 61.8501C115.798 61.8501 116.305 61.1172 116.741 59.1555L111.758 42.4539H115.935Z" fill="white"/>
</svg>
