<svg width="19" height="19" viewBox="0 0 19 19" fill="none" xmlns="http://www.w3.org/2000/svg">
<path fill-rule="evenodd" clip-rule="evenodd" d="M8.53731 18.6023C8.41095 18.4763 8.31069 18.3266 8.24229 18.1617C8.17388 17.9969 8.13867 17.8201 8.13867 17.6416C8.13867 17.4632 8.17388 17.2864 8.24229 17.1216C8.31069 16.9567 8.41095 16.807 8.53731 16.681L15.7208 9.50021L8.53731 2.31947C8.28252 2.06467 8.13938 1.7191 8.13938 1.35878C8.13938 0.998447 8.28252 0.652878 8.53731 0.398087C8.7921 0.143295 9.13767 0.000156359 9.498 0.000156343C9.85833 0.000156327 10.2039 0.143295 10.4587 0.398086L18.6001 8.53952C18.7265 8.66557 18.8267 8.8153 18.8952 8.98015C18.9636 9.145 18.9988 9.32173 18.9988 9.50021C18.9988 9.67869 18.9636 9.85542 18.8952 10.0203C18.8267 10.1851 18.7265 10.3349 18.6001 10.4609L10.4587 18.6023C10.3326 18.7287 10.1829 18.829 10.0181 18.8974C9.85321 18.9658 9.67648 19.001 9.498 19.001C9.31952 19.001 9.1428 18.9658 8.97794 18.8974C8.81309 18.829 8.66336 18.7287 8.53731 18.6023Z" fill="white"/>
<path fill-rule="evenodd" clip-rule="evenodd" d="M-5.93122e-08 9.50247C-7.50428e-08 9.1426 0.142959 8.79746 0.397429 8.54299C0.651898 8.28852 0.997032 8.14556 1.35691 8.14556L14.926 8.14556C15.2858 8.14556 15.631 8.28852 15.8854 8.54299C16.1399 8.79746 16.2829 9.14259 16.2829 9.50247C16.2829 9.86234 16.1399 10.2075 15.8854 10.4619C15.631 10.7164 15.2858 10.8594 14.926 10.8594L1.35691 10.8594C0.997032 10.8594 0.651898 10.7164 0.397429 10.4619C0.14296 10.2075 -4.35817e-08 9.86234 -5.93122e-08 9.50247Z" fill="white"/>
</svg>
