<svg width="48" height="48" viewBox="0 0 48 48" fill="none" xmlns="http://www.w3.org/2000/svg">
<path d="M38.0537 38.0537C34.3265 41.781 29.2712 43.875 24 43.875C18.7288 43.875 13.6735 41.781 9.94625 38.0537C6.21897 34.3265 4.125 29.2712 4.125 24C4.125 18.7288 6.21897 13.6735 9.94625 9.94625C13.6735 6.21897 18.7288 4.125 24 4.125C29.2712 4.125 34.3265 6.21897 38.0537 9.94625C41.781 13.6735 43.875 18.7288 43.875 24C43.875 29.2712 41.781 34.3265 38.0537 38.0537ZM24 47.25C30.1663 47.25 36.08 44.8005 40.4402 40.4402C44.8005 36.08 47.25 30.1663 47.25 24C47.25 17.8337 44.8005 11.92 40.4402 7.55977C36.08 3.19955 30.1663 0.75 24 0.75C17.8337 0.75 11.92 3.19955 7.55977 7.55977C3.19955 11.92 0.75 17.8337 0.75 24C0.75 30.1663 3.19955 36.08 7.55977 40.4402C11.92 44.8005 17.8337 47.25 24 47.25Z" fill="white" stroke="white" stroke-width="0.5"/>
<path d="M35.6255 13.2909C35.5405 13.0859 35.4158 12.8997 35.2588 12.743L33.0466 12.9199L32.8698 12.7431L32.8697 12.7432C32.8696 12.7433 32.8696 12.7433 32.8696 12.7433L12.7448 32.8681C12.428 33.1849 12.25 33.6146 12.25 34.0626C12.25 34.5107 12.428 34.9403 12.7448 35.2572C13.0616 35.574 13.4913 35.7519 13.9393 35.7519C14.3874 35.7519 14.817 35.574 15.1338 35.2572L35.2586 15.1324C35.4158 14.9756 35.5404 14.7894 35.6255 14.5844C35.7106 14.3794 35.7544 14.1596 35.7544 13.9376C35.7544 13.7157 35.7106 13.4959 35.6255 13.2909Z" fill="white" stroke="white" stroke-width="0.5"/>
<path d="M13.2933 12.3764C13.0884 12.4615 12.9023 12.5861 12.7455 12.7431C12.5885 12.8998 12.4639 13.0859 12.3789 13.2909C12.2938 13.4959 12.25 13.7157 12.25 13.9376C12.25 14.1596 12.2938 14.3794 12.3789 14.5844C12.4639 14.7894 12.5886 14.9756 12.7457 15.1323C12.7457 15.1323 12.7457 15.1324 12.7458 15.1324L32.8705 35.2572C33.1874 35.574 33.617 35.7519 34.0651 35.7519C34.5131 35.7519 34.9428 35.574 35.2596 35.2572C35.5764 34.9403 35.7544 34.5107 35.7544 34.0626C35.7544 33.6146 35.5764 33.1849 35.2596 32.8681L15.1348 12.7433C15.1348 12.7433 15.1348 12.7433 15.1347 12.7433C14.978 12.5861 14.7918 12.4615 14.5868 12.3764C14.3818 12.2913 14.162 12.2476 13.9401 12.2476C13.7181 12.2476 13.4983 12.2913 13.2933 12.3764Z" fill="white" stroke="white" stroke-width="0.5"/>
</svg>
