<svg width="30" height="30" viewBox="0 0 30 30" fill="none" xmlns="http://www.w3.org/2000/svg">
<path fill-rule="evenodd" clip-rule="evenodd" d="M30 15C30 18.9782 28.4196 22.7936 25.6066 25.6066C22.7936 28.4196 18.9782 30 15 30C11.0218 30 7.20644 28.4196 4.3934 25.6066C1.58035 22.7936 0 18.9782 0 15C0 11.0218 1.58035 7.20644 4.3934 4.3934C7.20644 1.58035 11.0218 0 15 0C18.9782 0 22.7936 1.58035 25.6066 4.3934C28.4196 7.20644 30 11.0218 30 15ZM14.3363 19.9613C14.1602 20.1373 14.0613 20.376 14.0613 20.625C14.0613 20.874 14.1602 21.1127 14.3363 21.2887C14.5123 21.4648 14.751 21.5637 15 21.5637C15.249 21.5637 15.4877 21.4648 15.6637 21.2887L21.2887 15.6637C21.3761 15.5767 21.4453 15.4732 21.4926 15.3593C21.5398 15.2454 21.5642 15.1233 21.5642 15C21.5642 14.8767 21.5398 14.7546 21.4926 14.6407C21.4453 14.5268 21.3761 14.4233 21.2887 14.3363L15.6637 8.71125C15.5766 8.62408 15.4731 8.55494 15.3592 8.50777C15.2453 8.4606 15.1233 8.43632 15 8.43632C14.8767 8.43632 14.7547 8.4606 14.6408 8.50777C14.5269 8.55494 14.4234 8.62408 14.3363 8.71125C14.2491 8.79842 14.1799 8.90189 14.1328 9.01578C14.0856 9.12967 14.0613 9.25173 14.0613 9.375C14.0613 9.49827 14.0856 9.62033 14.1328 9.73422C14.1799 9.84811 14.2491 9.95158 14.3363 10.0387L18.3619 14.0625H9.375C9.12636 14.0625 8.8879 14.1613 8.71209 14.3371C8.53627 14.5129 8.4375 14.7514 8.4375 15C8.4375 15.2486 8.53627 15.4871 8.71209 15.6629C8.8879 15.8387 9.12636 15.9375 9.375 15.9375H18.3619L14.3363 19.9613Z" fill="#0C1A21"/>
</svg>
