<svg width="96" height="110" viewBox="0 0 96 110" fill="none" xmlns="http://www.w3.org/2000/svg">
<path d="M-1.52588e-05 59.5879C-1.52588e-05 64.5535 0.69944 69.3521 2.00661 73.8761C2.07542 74.1149 2.14421 74.3655 2.22447 74.6043C2.70607 76.2038 3.26793 77.7556 3.89858 79.2835C4.42604 80.5607 5.01083 81.8021 5.63001 83.0196C6.4556 84.6072 7.34998 86.159 8.3361 87.6392C8.87502 88.4509 9.43687 89.2506 10.0217 90.0384C11.432 91.9244 12.9571 93.6911 14.6083 95.3383C19.9746 100.71 26.5448 104.804 33.849 107.096C34.8465 107.406 35.8556 107.693 36.8761 107.932C37.3462 108.051 37.8164 108.146 38.298 108.254C39.9835 108.6 41.7035 108.863 43.4579 109.018C43.756 109.042 44.0426 109.066 44.3408 109.089C45.132 109.149 45.9231 109.185 46.7258 109.197C46.7831 109.197 46.8405 109.197 46.8978 109.197C47.1615 109.197 47.4138 109.209 47.6775 109.209C47.9412 109.209 48.205 109.209 48.4572 109.197C48.7324 109.197 48.9962 109.185 49.2599 109.173C49.8447 109.149 50.4295 109.125 51.0028 109.078C51.3009 109.054 51.5876 109.03 51.8857 109.006C54.1217 108.803 56.3232 108.433 58.4674 107.92C59.9696 107.562 61.4373 107.12 62.882 106.619C64.1089 106.189 65.3244 105.711 66.5054 105.174C71.8259 102.799 76.6418 99.4326 80.7468 95.3145C82.398 93.6672 83.923 91.8886 85.3334 90.0146C85.9182 89.2387 86.48 88.4389 87.0189 87.6153C87.9936 86.1351 88.8994 84.5953 89.725 82.9958C89.9543 82.5541 90.1722 82.1125 90.3901 81.6589C90.4474 81.5395 90.5047 81.4201 90.5621 81.3008C90.8831 80.6323 91.1813 79.94 91.4679 79.2477C93.9791 73.2077 95.3665 66.547 95.3665 59.5521C95.3665 40.2146 84.7371 23.4554 69.2345 15.2668C68.1681 14.7058 67.0788 14.1806 65.978 13.7031C65.8404 13.6434 65.7028 13.5837 65.5652 13.5241C65.2556 13.3927 64.946 13.2614 64.6364 13.1421C62.9394 12.4736 61.1965 11.9007 59.4192 11.4232C58.4445 11.1606 57.4584 10.9457 56.4494 10.7428C53.6057 10.1937 50.6817 9.90723 47.689 9.90723C46.3818 9.90723 45.0861 9.96691 43.8133 10.0743C42.7699 10.1579 41.7379 10.2892 40.7174 10.4444C38.6534 10.7547 36.6353 11.2083 34.6631 11.7932C31.9226 12.6049 29.2739 13.6673 26.7512 14.9445C10.9046 23.0496 -1.52588e-05 39.9997 -1.52588e-05 59.5879Z" fill="#0C1A21"/>
<path d="M17.7774 57.5258C19.3846 57.0423 20.9712 56.677 22.3607 56.5481C27.0892 56.1076 31.3614 55.7209 35.2396 55.4093C35.9758 55.3556 36.7017 55.3019 37.4068 55.2481V48.8342C35.561 47.3623 34.0264 45.4821 32.9272 43.3334C31.9525 41.421 31.3096 39.283 31.1125 37.0161H30.0963C29.7541 37.0161 29.4845 36.7261 29.4845 36.3823V26.7559C29.4845 26.4658 29.6712 26.2187 29.9408 26.1435C29.9097 23.9841 29.9719 22.0932 29.9719 22.0932L28.6861 21.5345C28.6861 21.5345 27.7217 16.2594 29.4949 11.0702C31.0918 6.39668 35.1048 4.12976 35.1048 4.12976L32.9687 2.57193C32.9687 2.57193 49.7984 -3.58419 58.8717 3.15209C63.8801 6.85865 65.3422 11.5429 66.0474 15.1098C66.6177 18.0106 66.2029 22.0932 66.2029 22.0932L64.8238 21.0618C64.8238 21.0618 65 23.5758 65.0208 26.2295C65.1867 26.3477 65.2904 26.5411 65.2904 26.7559V36.3715C65.2904 36.7261 65.0104 37.0054 64.6786 37.0054H63.6727C63.2372 41.8078 60.873 46.0193 57.3888 48.8127V50.4457V55.5704C58.1562 55.6349 58.9339 55.6994 59.722 55.7746C62.3247 56.0002 65.0934 56.258 68.0383 56.5266C69.4278 56.6556 71.004 57.0208 72.6216 57.5043C79.2166 59.4919 84.1836 65.1538 85.5316 72.1372L85.9464 74.2752C85.7494 74.6834 85.5524 75.0809 85.345 75.4785C84.5984 76.9181 83.7896 78.304 82.8978 79.6363C82.4104 80.3668 81.9023 81.0867 81.3735 81.7957C80.098 83.4932 78.7189 85.0833 77.2257 86.5659C73.5134 90.2725 69.1582 93.3022 64.3468 95.4402C63.2787 95.9237 62.1795 96.3534 61.07 96.7402C59.7634 97.1914 58.4361 97.5889 57.0777 97.9112C55.1386 98.3732 53.1581 98.7063 51.1257 98.8889C50.8664 98.9104 50.5968 98.9319 50.3272 98.9534C49.8087 98.9964 49.2799 99.0178 48.751 99.0393C48.5125 99.0501 48.2637 99.0501 48.0252 99.0608C47.7867 99.0608 47.5482 99.0716 47.32 99.0716C47.0815 99.0716 46.8431 99.0716 46.6149 99.0608C46.5631 99.0608 46.5112 99.0608 46.4594 99.0608C45.7335 99.0501 45.018 99.0178 44.3025 98.9641C44.0329 98.9426 43.7737 98.9212 43.5041 98.8997C41.9279 98.76 40.3621 98.5236 38.8378 98.2121C38.4023 98.1261 37.9771 98.0294 37.552 97.922C36.6291 97.6964 35.7166 97.4493 34.8144 97.1699C28.1987 95.0964 22.257 91.4221 17.4144 86.5874C15.9212 85.1048 14.5421 83.504 13.2666 81.8172C12.7378 81.1189 12.2297 80.3991 11.7423 79.6578C10.8609 78.3255 10.0417 76.9396 9.29511 75.5C8.72479 74.4041 8.20631 73.2868 7.72932 72.1372C7.159 70.7727 6.65089 69.3653 6.21538 67.9257C8.40334 62.9406 12.5822 59.0836 17.7774 57.5258Z" fill="#04E069"/>
</svg>
