<svg width="64" height="40" viewBox="0 0 64 40" fill="none" xmlns="http://www.w3.org/2000/svg">
<path d="M62.5326 3.38564C62.9797 1.86194 62.5326 0.744568 60.4183 0.744568H53.4141C51.632 0.744568 50.8175 1.71121 50.3704 2.77288C50.3704 2.77288 46.8092 11.6824 41.7629 17.4593C40.1341 19.1403 39.3899 19.6711 38.502 19.6711C38.058 19.6711 37.4129 19.1403 37.4129 17.6166V3.38564C37.4129 1.55721 36.8987 0.744568 35.4135 0.744568H24.4075C23.296 0.744568 22.6253 1.58997 22.6253 2.39606C22.6253 4.12618 25.1485 4.52595 25.4072 9.40177V19.9791C25.4072 22.2958 25.0015 22.7185 24.1073 22.7185C21.7342 22.7185 15.9597 13.7762 12.5327 3.53964C11.8652 1.55065 11.1913 0.747846 9.40273 0.747846H2.40178C0.399233 0.747846 0 1.71449 0 2.77616C0 4.68323 2.37304 14.1203 11.054 26.6015C16.8412 35.1243 24.9888 39.7446 32.4113 39.7446C36.8603 39.7446 37.4097 38.7189 37.4097 36.9495V30.5074C37.4097 28.4561 37.8345 28.0433 39.243 28.0433C40.2778 28.0433 42.06 28.5806 46.2152 32.6864C50.9612 37.5557 51.7469 39.7413 54.4138 39.7413H61.4147C63.4141 39.7413 64.4138 38.7157 63.8389 36.6906C63.2097 34.6754 60.9421 31.7427 57.9334 28.2726C56.2982 26.2935 53.8549 24.1636 53.1107 23.0986C52.0727 21.7257 52.3729 21.1195 53.1107 19.9005C53.1139 19.9038 61.6447 7.57661 62.5326 3.38564Z" fill="white"/>
</svg>
