<svg width="97" height="97" viewBox="0 0 97 97" fill="none" xmlns="http://www.w3.org/2000/svg">
<path fill-rule="evenodd" clip-rule="evenodd" d="M97 48.5C97 75.2858 75.2858 97 48.5 97C21.7142 97 0 75.2858 0 48.5C0 21.7142 21.7142 0 48.5 0C75.2858 0 97 21.7142 97 48.5ZM51.3791 80.8997V73.6579C57.0263 73.1043 61.2341 71.2662 64.0245 68.1214C66.8149 64.9767 68.2101 61.4776 68.2101 57.5799C68.2101 54.7673 67.4128 52.2205 65.8405 49.9395C64.2681 47.6584 62.3414 45.9974 60.016 44.9787C57.6907 43.96 54.0587 42.9413 49.098 41.9447C46.1304 41.3689 44.2259 40.6602 43.3843 39.863C42.5427 39.0657 42.122 38.0691 42.122 36.8954C42.122 33.9943 44.3809 32.5326 48.8765 32.5326C53.1286 32.5326 55.8969 34.4593 57.2035 38.2906L66.8813 35.0573C64.4453 28.2584 59.2852 24.4936 51.3791 23.7406V17.7611H48.2564H45.1781V23.8292C40.9482 24.3385 37.5156 25.9995 34.858 28.8342C32.2005 31.6689 30.8717 35.0794 30.8717 39.0657C30.8717 42.4762 31.9348 45.4438 34.0386 47.9906C36.1425 50.5374 40.8375 52.5527 48.1014 54.0586C51.4455 54.7009 53.7044 55.4317 54.856 56.229C56.0076 57.0262 56.5834 58.1335 56.5834 59.573C56.5834 60.9904 55.9412 62.1863 54.6567 63.1828C53.3722 64.1794 51.4233 64.6888 48.8101 64.6888C43.4064 64.6888 40.1067 62.4077 38.9108 57.8899L28.3692 60.3038C30.3845 68.2321 35.9875 72.6835 45.2224 73.6579V80.8997H48.3007H51.3791Z" fill="#04E069"/>
</svg>
