<svg width="97" height="97" viewBox="0 0 97 97" fill="none" xmlns="http://www.w3.org/2000/svg">
<path fill-rule="evenodd" clip-rule="evenodd" d="M97 48.5C97 75.2858 75.2858 97 48.5 97C21.7142 97 0 75.2858 0 48.5C0 21.7142 21.7142 0 48.5 0C75.2858 0 97 21.7142 97 48.5ZM52.768 28.2917H44.1027C42.7124 24.735 40.643 20.6287 39.479 18.333C38.9617 17.3307 39.285 17.0073 40.255 17.5893L42.7447 19.109C43.1974 19.4 43.941 19.303 44.329 18.915L46.948 16.3283C48.0797 15.1967 49.1467 15.423 50.052 16.102L51.8304 17.4277C52.283 17.751 53.0914 17.9127 53.641 17.7833L56.8097 16.975C57.909 16.7163 58.2647 17.2337 57.6504 18.1713C56.357 20.176 54.2554 23.862 52.768 28.2917ZM45.9458 48.4677C45.5901 48.9527 45.3961 49.5347 45.3961 50.1167C45.3961 50.6663 45.5578 51.1837 45.8811 51.6363C46.1721 52.0567 46.5924 52.38 47.1421 52.671V47.4977C46.6571 47.724 46.2368 48.0473 45.9458 48.4677ZM41.3544 34.2087H55.4517C63.0824 38.9293 71.5537 49.858 71.5537 61.304C71.5537 74.2373 61.2394 78.0527 48.5 78.0527C35.7607 78.0527 25.4464 74.2373 25.4464 61.304C25.4464 50.0843 33.5944 38.994 41.3544 34.2087ZM49.955 68.773C52.0567 68.4497 53.7704 67.5767 54.9667 66.2187C56.2277 64.8283 56.842 63.0823 56.842 61.0453C56.842 59.2023 56.357 57.6503 55.3547 56.4863C54.3847 55.3547 52.574 54.3847 49.955 53.6733V47.627C50.828 48.0797 51.3454 48.888 51.5717 50.0197L51.604 50.1813L56.1954 49.567L56.163 49.373C55.8397 47.6593 55.1607 46.269 54.0937 45.2667C53.059 44.2643 51.6687 43.65 49.955 43.4237V41.7423H47.142V43.4237C45.2667 43.6177 43.747 44.3613 42.6154 45.59C41.419 46.851 40.837 48.4353 40.837 50.3107C40.837 52.1537 41.3544 53.738 42.389 55.0313C43.4237 56.2923 45.008 57.23 47.142 57.8767V64.408C46.657 64.117 46.2367 63.729 45.8487 63.2117C45.3637 62.5973 45.0404 61.8213 44.8787 60.9807L44.8464 60.819L40.1257 61.3363L40.158 61.5303C40.5137 63.729 41.2897 65.475 42.5184 66.7037C43.7147 67.8677 45.2667 68.6113 47.142 68.87V70.616H49.955V68.773ZM49.955 58.7174V64.699C50.634 64.5374 51.216 64.1817 51.6363 63.6643C52.1213 63.0824 52.38 62.4034 52.38 61.6274C52.38 60.9484 52.186 60.334 51.7657 59.8167C51.41 59.364 50.7957 58.976 49.955 58.7174ZM41.5808 31.234C41.5808 30.2317 42.0981 29.391 43.3591 29.391H53.6088C54.8698 29.391 55.3871 30.1993 55.3871 31.234C55.3871 32.2363 54.8698 33.077 53.6088 33.077H43.3591C42.0981 33.077 41.5808 32.2687 41.5808 31.234Z" fill="#04E069"/>
</svg>
