<svg width="97" height="97" viewBox="0 0 97 97" fill="none" xmlns="http://www.w3.org/2000/svg">
<path fill-rule="evenodd" clip-rule="evenodd" d="M48.5 97C75.2858 97 97 75.2858 97 48.5C97 21.7142 75.2858 0 48.5 0C21.7142 0 0 21.7142 0 48.5C0 75.2858 21.7142 97 48.5 97ZM27.7097 60.0107C27.936 61.1423 28.0653 62.1447 28.1623 62.9853C28.1623 62.9853 35.502 66.5743 48.5 66.5743C60.819 66.5743 68.8377 62.9853 68.8377 62.9853C68.9023 62.1447 69.064 61.1423 69.2903 59.9783C65.7337 61.207 58.3617 63.2117 48.5 63.2117C38.2827 63.1793 31.1693 61.2393 27.7097 60.0107ZM60.5926 44.0057C60.1723 43.9087 59.752 43.747 59.3316 43.5207C60.819 42.8093 62.4033 41.4837 63.9877 39.8993C63.6967 39.6083 63.5027 39.2203 63.5027 38.8C63.5027 37.9917 64.1817 37.3127 64.99 37.3127C65.7983 37.3127 66.4773 37.9593 66.4773 38.8C66.4773 39.6083 65.8307 40.2873 64.99 40.2873C64.8607 40.2873 64.7313 40.255 64.602 40.2227C64.2463 41.5483 63.923 42.874 63.632 44.135C63.2117 44.1997 62.8237 44.232 62.4357 44.232C61.789 44.232 61.1746 44.1673 60.5926 44.0057ZM75.369 36.957C74.1403 36.957 73.138 37.9593 73.138 39.188C73.138 39.673 73.2996 40.1257 73.5583 40.4813C69.7106 43.359 65.7983 45.396 62.4356 45.396C61.692 45.396 60.9806 45.299 60.2693 45.1373C55.484 43.9087 51.8303 37.2803 49.2113 30.1993C50.0843 29.9083 50.6986 29.0677 50.6986 28.0977C50.6986 26.869 49.6963 25.8667 48.4676 25.8667C47.239 25.8667 46.2366 26.869 46.2366 28.0977C46.2366 29.0677 46.851 29.9083 47.724 30.1993C45.1373 37.2803 41.4513 43.8763 36.666 45.1373C35.987 45.299 35.2433 45.396 34.4996 45.396C31.137 45.396 27.2246 43.359 23.377 40.4813C23.6356 40.1257 23.7973 39.673 23.7973 39.188C23.7973 37.9593 22.795 36.957 21.5663 36.957C20.3376 36.957 19.3353 37.9593 19.3353 39.188C19.3353 40.4167 20.3376 41.419 21.5663 41.419C21.8573 41.419 22.116 41.3543 22.3423 41.2897C24.444 47.336 26.0606 52.9297 27.063 57.23C29.3586 58.1677 36.86 60.7867 48.4353 60.7867C59.461 60.7867 67.3826 58.1353 69.8076 57.1977C70.81 52.8973 72.4266 47.3037 74.5283 41.2897C74.787 41.3867 75.0456 41.419 75.3043 41.419C76.533 41.419 77.5353 40.4167 77.5353 39.188C77.5353 37.9593 76.5976 36.957 75.369 36.957ZM38.4443 53.1237C38.4443 53.35 38.315 53.5763 38.121 53.738L36.666 54.7727C36.4073 54.9667 36.084 54.9667 35.8253 54.7727L34.3703 53.738C34.1763 53.6087 34.047 53.3823 34.047 53.1237V50.7957C34.047 50.5693 34.1763 50.343 34.3703 50.1813L35.8253 49.1467C36.084 48.9527 36.4073 48.9527 36.666 49.1467L38.121 50.1813C38.315 50.3107 38.4443 50.537 38.4443 50.7957V53.1237ZM52.0243 54.6757C52.0243 54.902 51.895 55.1283 51.701 55.29L48.9203 57.2623C48.6616 57.4563 48.3383 57.4563 48.0796 57.2623L45.2666 55.29C45.0726 55.1607 44.9433 54.9343 44.9433 54.6757V50.44C44.9433 50.2137 45.0726 49.9873 45.2666 49.8257L48.0473 47.8533C48.306 47.6593 48.6293 47.6593 48.888 47.8533L51.6686 49.8257C51.8626 49.955 51.992 50.1813 51.992 50.44V54.6757H52.0243ZM62.9206 53.1237C62.9206 53.35 62.7913 53.5763 62.5973 53.738L61.1423 54.7727C60.8836 54.9667 60.5603 54.9667 60.3016 54.7727L58.8466 53.738C58.6526 53.6087 58.5233 53.3823 58.5233 53.1237V50.7957C58.5233 50.5693 58.6526 50.343 58.8466 50.1813L60.3016 49.1467C60.5603 48.9527 60.8836 48.9527 61.1423 49.1467L62.5973 50.1813C62.7913 50.3107 62.9206 50.537 62.9206 50.7957V53.1237ZM32.398 40.1903C32.2686 40.2227 32.1393 40.255 32.01 40.255C31.2016 40.255 30.5226 39.6083 30.555 38.7353C30.555 37.927 31.234 37.248 32.0423 37.248C32.8506 37.248 33.5296 37.8947 33.5296 38.7353C33.5296 39.188 33.3356 39.576 33.0446 39.8347C34.5966 41.4513 36.181 42.777 37.6683 43.4883C37.248 43.7147 36.8276 43.8763 36.4073 43.9733C35.8253 44.135 35.211 44.1997 34.5643 44.1997C34.1763 44.1997 33.7883 44.1673 33.368 44.1027C33.077 42.8417 32.7536 41.516 32.398 40.1903Z" fill="#04E069"/>
</svg>
