<svg width="97" height="97" viewBox="0 0 97 97" fill="none" xmlns="http://www.w3.org/2000/svg">
<path fill-rule="evenodd" clip-rule="evenodd" d="M48.5 97C75.2858 97 97 75.2858 97 48.5C97 21.7142 75.2858 0 48.5 0C21.7142 0 0 21.7142 0 48.5C0 75.2858 21.7142 97 48.5 97ZM30.9892 40.5021C32.2378 40.5021 32.8621 41.1206 32.8621 42.3575C32.8621 45.3149 29.5589 48.5061 26.6448 51.3213C26.207 51.7442 25.778 52.1586 25.3703 52.5625V55.9641H37.8567V51.944H30.677C30.7363 51.897 30.8005 51.8465 30.8692 51.7925C32.6098 50.4226 37.2324 46.7848 37.2324 41.4298C37.2324 38.6466 35.3594 36.1727 31.6135 36.1727C28.1798 36.1727 25.9947 38.0282 25.3703 40.8113L28.8041 42.3575C28.9112 42.1984 29.0091 42.0392 29.1042 41.8847C29.5631 41.1388 29.9548 40.5021 30.9892 40.5021ZM48.4701 51.944V55.6549H44.0998V51.6348H35.3594V48.5424L42.2269 36.482H47.2214L40.6661 47.6146H44.0998V43.2853H48.4701V47.6146H50.6552V51.944H48.4701ZM57.8348 38.3374H60.0199L51.2795 64.9321H49.0944L57.8348 38.3374ZM68.7603 79.7757C76.2521 79.7757 82.4953 73.5909 82.4953 66.1691C82.4953 60.912 79.3737 56.2734 75.3157 53.7995C75.6278 52.2533 75.6278 50.707 75.6278 49.1608C75.6278 41.4298 72.5062 34.3173 67.5117 29.0602C66.5752 30.2971 65.6388 31.8433 65.3266 33.3896C68.7603 37.7189 70.9455 43.2853 70.9455 49.1608C70.9455 49.8237 70.8558 50.4866 70.7726 51.1019C70.7005 51.6348 70.6333 52.1319 70.6333 52.5625H68.4482C60.9564 52.5625 54.7132 58.4381 54.7132 66.1691C54.7132 68.3338 55.0254 70.1892 55.9619 72.0447C53.1524 73.5909 49.7187 74.2094 45.9728 74.2094C32.2378 74.2094 21.0001 63.0767 21.0001 49.4701C21.0001 35.8635 32.2378 24.7308 45.9728 24.7308C47.5336 24.7308 49.0944 24.7308 50.6552 25.04L45.9728 28.4417C46.2849 29.0602 46.9093 29.0602 47.5336 29.0602L57.5226 25.9678C58.147 25.9678 58.4591 25.3493 58.147 24.7308L50.343 14.2166C50.0308 13.5981 49.4065 13.5981 48.7822 13.5981L51.5916 20.4014C50.0308 20.0922 47.8457 19.783 45.9728 19.783C29.4284 19.783 16.3177 33.0803 16.3177 49.1608C16.3177 65.5506 29.4284 78.5387 45.9728 78.5387C50.6552 78.5387 55.0254 77.611 58.7713 75.7556C61.2685 78.2295 64.7023 79.7757 68.7603 79.7757ZM69.3847 57.5103H74.067H74.3792V60.2935L68.4482 74.8278H64.3901L65.9509 70.8077L69.6968 61.2212H67.5117H62.8293V57.5103H69.3847Z" fill="#04E069"/>
</svg>
