<svg width="97" height="97" viewBox="0 0 97 97" fill="none" xmlns="http://www.w3.org/2000/svg">
<path fill-rule="evenodd" clip-rule="evenodd" d="M48.5 97C75.2858 97 97 75.2858 97 48.5C97 21.7142 75.2858 0 48.5 0C21.7142 0 0 21.7142 0 48.5C0 75.2858 21.7142 97 48.5 97ZM47.8694 28.585C36.9924 28.7952 28.4274 37.7806 28.6376 48.5525C28.7427 52.8088 30.4242 58.2736 33.104 63.3705C33.104 63.3705 36.2568 67.7318 42.4047 67.942C43.5607 67.3115 44.8218 66.9962 46.188 66.9962C50.6544 66.9962 54.2275 70.5693 54.2275 75.0357C54.2275 75.5612 54.2275 76.0867 54.1224 76.507C58.3787 74.4052 61.8467 69.7286 64.2638 64.3689C66.786 58.8516 68.1522 52.6511 68.0471 47.8694C67.8895 37.045 59.0092 28.48 47.8694 28.585ZM76.4544 45.8201C77.9257 46.5558 79.0817 47.7118 80.0276 49.1831C80.7632 50.5493 81.2887 52.1782 81.2887 53.9648C81.2887 59.0092 77.085 63.2654 71.988 63.2654C71.5676 63.2654 71.0422 63.2654 70.6218 63.1603C69.3607 62.9502 68.6251 61.584 69.0454 60.2178C70.4116 55.8564 71.1473 51.4951 71.0422 47.7118C70.9371 41.669 68.52 36.0991 64.1587 31.8429C59.7973 27.5867 54.1224 25.3797 48.0796 25.5899C42.0368 25.695 36.4144 28.1121 32.2107 32.4735C28.007 36.8348 25.8001 42.5623 26.0102 48.6576C26.1153 52.1257 27.0612 56.1717 28.5324 60.0601C28.9528 61.2161 28.4274 62.4772 27.2713 62.8976C27.5866 63.7383 28.2172 64.7893 29.0579 65.9453C31.475 69.3082 36.0465 73.2492 44.2963 73.6695C44.7166 72.9339 45.4523 72.5135 46.3981 72.5135C47.7643 72.5135 48.9203 73.6696 48.9203 75.0358C48.9203 76.4019 47.7643 77.558 46.3981 77.558C45.4523 77.558 44.7166 77.0325 44.1912 76.2969C34.7854 75.9816 29.4783 71.305 26.7459 67.3115C25.4848 65.4724 24.7491 64.0011 24.3288 62.9502H22.9626C18.7063 62.0043 15.6587 58.221 15.7638 53.6495C15.8689 50.1815 17.9181 47.0813 20.8607 45.61C21.3862 31.2124 34.1549 19.4946 48.9729 19.4946C63.6332 19.4946 75.8239 31.2123 76.4544 45.8201Z" fill="#04E069"/>
</svg>
