<svg width="270" height="221" viewBox="0 0 270 221" fill="none" xmlns="http://www.w3.org/2000/svg">
<g clip-path="url(#clip0)">
<path d="M142.315 88.7188L137.527 91.9063L138.059 95.6251L146.837 101.734L152.956 96.4219L142.847 93.5001L142.315 88.7188Z" fill="#04E069"/>
<path d="M173.97 22.0469L169.98 22.5781L168.65 31.875L174.502 29.4844L173.97 22.0469Z" fill="#04E069"/>
<path d="M161.734 54.9844L168.916 55.5156L170.778 52.0625L162.798 50.4688L161.734 54.9844Z" fill="#04E069"/>
<path d="M77.6748 145.828L81.1329 147.953L86.7191 143.438L82.995 140.25L77.6748 145.828Z" fill="#04E069"/>
<path d="M130.345 130.156L137.793 129.359L139.123 126.703L130.611 125.641L130.345 130.156Z" fill="#04E069"/>
<path d="M110.66 117.672L110.394 112.891L106.404 112.094L108.266 117.672H110.66Z" fill="#04E069"/>
<path d="M89.9114 119.531L94.4336 119.797L95.4976 117.406L90.7094 116.344L89.9114 119.531Z" fill="#04E069"/>
<path d="M75.5467 186.469L75.0147 191.25L78.7388 192.844L77.9408 186.734L75.5467 186.469Z" fill="#04E069"/>
<path d="M146.039 221L153.488 220.469L154.818 217.812L146.571 216.75L146.039 221Z" fill="#04E069"/>
<path d="M93.1035 168.141L96.8276 170.266L96.5616 173.187L100.286 173.719L102.68 172.391L96.5616 166.547L93.1035 168.141Z" fill="#04E069"/>
<path d="M157.212 193.906C158.01 193.641 158.808 193.641 159.872 193.375C160.404 193.375 160.936 193.375 161.468 193.109C162.798 192.578 163.862 192.313 165.192 191.781C162.266 192.578 159.606 193.109 157.212 193.906Z" fill="#04E069"/>
<path d="M13.3005 163.625C7.71426 163.891 3.4581 166.016 -2.525e-05 170.797C-0.532045 171.328 1.86204 177.438 2.12805 177.969C2.39406 178.766 4.52214 184.609 4.25613 185.141C7.71426 180.094 12.2364 178.234 17.5566 177.969C17.2906 177.969 15.6946 171.063 15.4285 170.797C15.4285 170.266 13.8325 163.625 13.3005 163.625Z" fill="#04E069"/>
<path opacity="0.1429" d="M53.468 40.3751C54.798 40.3751 56.3941 39.5782 57.7241 39.8438C63.0443 42.5001 67.8325 46.2188 72.6207 49.6719C77.4089 53.1251 82.4631 56.3126 88.0493 58.1719C86.9852 64.0157 85.1232 73.8438 80.335 73.8438C75.2808 73.8438 70.4926 71.9844 65.9704 68.5313C61.7143 65.3438 57.4581 61.3594 53.468 58.1719C51.6059 56.8438 50.0099 55.7813 48.1478 54.7188C47.0837 54.1876 47.3498 52.8594 48.1478 51.2657C48.9458 49.9376 50.0099 48.0782 50.5419 46.4844C51.6059 43.5626 53.468 40.3751 53.468 40.3751Z" fill="#04E069"/>
<path opacity="0.2857" d="M54.7979 41.9688C55.862 41.9688 57.458 41.4375 58.5221 41.7032C63.0442 44.0938 67.3004 47.2813 71.8226 50.2032C76.0787 53.125 80.6009 56.0469 85.3891 57.9063C85.1231 62.9532 83.793 71.7188 79.2708 72.25C74.7487 72.7813 70.2265 70.9219 66.2364 67.7344C62.2462 64.8125 58.5221 61.0938 54.7979 58.1719C53.2019 56.8438 51.6058 55.7813 50.0098 54.9844C49.2117 54.4532 49.4777 53.125 50.0098 52.0625C50.5418 51 51.6058 49.1407 52.1378 47.8125C53.2019 45.1563 54.7979 41.9688 54.7979 41.9688Z" fill="#04E069"/>
<path opacity="0.4286" d="M56.128 43.5625C57.1921 43.5625 58.2561 43.2968 59.3201 43.5625C63.3103 45.6875 67.0344 48.3437 70.7586 51C74.4827 53.6562 78.2068 56.0468 82.463 57.6406C82.729 62.1562 82.197 69.8593 77.9408 70.6562C73.9507 71.4531 69.9605 69.5937 65.9704 66.9375C62.5123 64.2812 59.0541 61.0937 55.596 58.1718C54.2659 57.1093 52.6699 56.0468 51.3398 54.9843C50.5418 54.4531 51.0738 53.3906 51.6059 52.3281C52.1379 51.2656 53.2019 49.6718 53.4679 48.6093C54.532 46.4843 56.128 43.5625 56.128 43.5625Z" fill="#04E069"/>
<path opacity="0.5714" d="M57.4581 45.1563C58.2561 45.1563 59.3202 44.8906 60.1182 45.1563C63.3103 46.75 66.7685 49.1406 69.9606 51.2656C73.1527 53.3906 76.3448 55.5156 79.8029 56.8438C80.867 60.8281 80.867 67.2031 77.1428 68.2656C73.6847 69.3281 69.9606 67.7344 66.2364 65.3438C63.0443 62.9531 60.1182 60.0313 57.1921 57.375C55.8621 56.3125 54.798 55.5156 53.468 54.4531C52.9359 54.1875 53.468 52.8594 53.734 52.3281C54 51.5313 55.064 49.9375 55.33 49.1406C56.1281 47.8125 57.4581 45.1563 57.4581 45.1563Z" fill="#04E069"/>
<path opacity="0.7143" d="M58.7881 46.75C59.3201 46.75 60.3841 46.75 60.9162 47.0156C63.5763 48.3438 66.2364 50.2031 69.1625 51.7969C71.8226 53.3906 74.4827 55.25 77.4088 56.5781C79.2709 60.0312 79.8029 65.0781 76.3447 66.6719C73.4186 68 69.9605 66.6719 66.7684 64.2812C64.1083 62.4219 61.4482 59.5 58.7881 57.375C57.724 56.3125 56.66 55.5156 55.596 54.7187C55.33 54.4531 55.862 53.3906 55.862 52.8594C56.128 52.3281 56.926 50.7344 57.192 50.2031C57.458 49.4062 58.7881 46.75 58.7881 46.75Z" fill="#04E069"/>
<path opacity="0.8571" d="M60.3843 48.6094C60.9163 48.6094 61.4483 48.875 61.9803 49.1406C64.1084 50.2031 66.2365 51.5313 68.3646 52.8594C70.4926 54.1875 72.6207 55.5156 74.7488 56.5781C77.1429 59.5 78.4729 63.2187 75.2808 65.0781C72.8867 66.6719 69.6946 65.6094 66.7685 63.4844C64.3744 61.8906 61.9803 59.5 59.8522 57.375C59.0542 56.5781 58.2562 55.7813 57.4581 54.9844C57.1921 54.9844 57.7242 53.6563 57.9902 53.6563C57.9902 53.3906 59.0542 51.7969 59.0542 51.5313C59.0542 50.7344 60.3843 48.6094 60.3843 48.6094Z" fill="#04E069"/>
<path d="M61.7142 50.2032C64.3743 51.5313 68.8964 53.6563 72.0885 56.0469C75.2807 58.4376 77.1427 60.8282 74.2166 63.2188C72.3546 65.0782 69.4284 64.2813 66.7683 62.4219C64.1082 60.5626 61.1821 57.3751 59.3201 54.7188L61.7142 50.2032Z" fill="#04E069"/>
<path d="M222.65 184.609L226.64 189.922L229.3 190.188L231.428 187.266L228.236 187L226.374 181.156L222.65 184.609Z" fill="#04E069"/>
<path d="M151.094 12.2188L150.03 1.85938L145.773 0L143.911 11.6875L151.094 12.2188Z" fill="#04E069"/>
<path d="M56.1281 177.172L64.6404 168.672L59.3202 158.844L51.606 174.781L56.1281 177.172Z" fill="#04E069"/>
<path d="M244.995 106.516L246.325 115.281L270 118.734L263.616 105.453L244.995 106.516Z" fill="#04E069"/>
<path d="M157.478 183.547L150.828 172.391L137.527 183.016L141.251 192.844L157.478 183.547Z" fill="#04E069"/>
<path d="M1.33008 143.703L6.65028 143.969L8.51234 140.25L1.59609 141.313L1.33008 143.703Z" fill="#04E069"/>
<path d="M100.552 179.297C100.286 179.563 100.02 179.828 99.7537 180.094C100.552 179.297 101.35 178.5 102.148 177.703C101.616 178.234 101.084 178.766 100.552 179.297Z" fill="#04E069"/>
</g>
<defs>
<clipPath id="clip0">
<rect width="270" height="221" fill="white"/>
</clipPath>
</defs>
</svg>
