<svg width="97" height="97" viewBox="0 0 97 97" fill="none" xmlns="http://www.w3.org/2000/svg">
<path fill-rule="evenodd" clip-rule="evenodd" d="M48.5 97C75.2858 97 97 75.2858 97 48.5C97 21.7142 75.2858 0 48.5 0C21.7142 0 0 21.7142 0 48.5C0 75.2858 21.7142 97 48.5 97ZM48.8322 34.0704C48.8322 40.4159 43.7056 45.5518 37.3716 45.5518C31.0375 45.5518 25.9109 40.4159 25.9109 34.0704C25.9109 27.7249 31.0375 22.5891 37.3716 22.5891C43.7056 22.5891 48.8322 27.7249 48.8322 34.0704ZM42.2833 34.0704C42.2833 31.3539 40.0832 29.1498 37.3716 29.1498C34.6599 29.1498 32.4599 31.3539 32.4599 34.0704C32.4599 36.787 34.6599 38.991 37.3716 38.991C40.0832 38.991 42.2833 36.787 42.2833 34.0704ZM48.8322 63.594C48.8322 57.2485 53.9588 52.1126 60.2928 52.1126C66.6268 52.1126 71.7534 57.2485 71.7534 63.594C71.7534 69.9395 66.6268 75.0753 60.2928 75.0753C53.9588 75.0753 48.8322 69.9395 48.8322 63.594ZM55.3811 63.594C55.3811 66.3105 57.5811 68.5146 60.2928 68.5146C63.0045 68.5146 65.2045 66.3105 65.2045 63.594C65.2045 60.8774 63.0045 58.6734 60.2928 58.6734C57.5811 58.6734 55.3811 60.8774 55.3811 63.594ZM69.2873 22.5993L66.0538 22.6096C65.2557 22.6096 64.5087 22.9991 64.0482 23.6552L26.3919 71.1901C25.2458 72.8201 26.4124 75.0651 28.4077 75.0651L31.8254 75.0548C32.219 75.0547 32.6067 74.9596 32.9558 74.7776C33.3049 74.5956 33.6051 74.332 33.8311 74.0092L71.3032 26.4743C72.4492 24.8341 71.2725 22.5891 69.2873 22.5993Z" fill="#04E069"/>
</svg>
