<svg width="50" height="50" viewBox="0 0 50 50" fill="none" xmlns="http://www.w3.org/2000/svg">
<path d="M15.8335 30.0637L15.8337 30.0636L21.339 24.5615L15.8337 19.0595L15.8335 19.0594C15.4058 18.6316 15.1655 18.0514 15.1655 17.4465C15.1655 16.8415 15.4058 16.2613 15.8335 15.8335C16.2613 15.4058 16.8415 15.1654 17.4465 15.1654C18.0514 15.1654 18.6316 15.4058 19.0594 15.8335L19.0595 15.8336L24.5615 21.339L30.0636 15.8337L30.0637 15.8335C30.2755 15.6217 30.5269 15.4537 30.8037 15.3391C31.0804 15.2244 31.377 15.1654 31.6766 15.1654C31.9761 15.1654 32.2727 15.2244 32.5495 15.3391C32.8262 15.4537 33.0777 15.6217 33.2895 15.8335L32.936 16.1871L33.2895 15.8335C33.5013 16.0454 33.6693 16.2968 33.784 16.5736C33.8986 16.8503 33.9576 17.1469 33.9576 17.4465C33.9576 17.746 33.8986 18.0426 33.784 18.3194C33.6693 18.5961 33.5013 18.8476 33.2895 19.0594L33.2894 19.0595L27.784 24.5615L33.2894 30.0636L33.2895 30.0637C33.7173 30.4914 33.9576 31.0716 33.9576 31.6766C33.9576 32.2815 33.7173 32.8617 33.2895 33.2895C32.8617 33.7173 32.2815 33.9576 31.6766 33.9576C31.0716 33.9576 30.4914 33.7173 30.0637 33.2895L30.0636 33.2894L24.5615 27.784L19.0598 33.2891L15.8335 30.0637ZM15.8335 30.0637C15.4063 30.491 15.1663 31.0706 15.1663 31.6748C15.1663 32.2061 15.3519 32.7183 15.6871 33.1248L15.6871 33.1427M15.8335 30.0637L15.6871 33.1427M15.6871 33.1427L15.8331 33.2891M15.6871 33.1427L15.8331 33.2891M15.8331 33.2891C16.0448 33.5013 16.2962 33.6696 16.5731 33.7845C16.8499 33.8994 17.1467 33.9585 17.4465 33.9585C17.7462 33.9585 18.043 33.8994 18.3198 33.7845C18.5965 33.6697 18.8479 33.5014 19.0595 33.2894L15.8331 33.2891ZM41.5756 41.5756C46.088 37.0632 48.623 30.943 48.623 24.5615C48.623 18.18 46.088 12.0599 41.5756 7.54746C37.0632 3.03504 30.943 0.499998 24.5615 0.499998C18.18 0.499997 12.0599 3.03504 7.54746 7.54746C3.03505 12.0599 0.500003 18.18 0.500002 24.5615C0.500002 30.943 3.03505 37.0632 7.54746 41.5756C12.0599 46.088 18.18 48.623 24.5615 48.623C30.943 48.623 37.0632 46.088 41.5756 41.5756ZM38.4787 38.4787C34.7876 42.1698 29.7815 44.2434 24.5615 44.2434C19.3416 44.2434 14.3354 42.1698 10.6443 38.4787C6.95328 34.7876 4.87966 29.7815 4.87966 24.5615C4.87966 19.3416 6.95328 14.3354 10.6443 10.6443C14.3354 6.95327 19.3416 4.87965 24.5615 4.87965C29.7815 4.87965 34.7876 6.95328 38.4787 10.6443C42.1698 14.3354 44.2434 19.3416 44.2434 24.5615C44.2434 29.7815 42.1698 34.7876 38.4787 38.4787Z" fill="white" stroke="white"/>
</svg>
