<svg width="50" height="50" viewBox="0 0 50 50" fill="none" xmlns="http://www.w3.org/2000/svg">
<path d="M33.2896 19.0593L33.2894 19.0595L27.784 24.5615L33.2894 30.0636L33.2895 30.0637C33.7173 30.4914 33.9576 31.0716 33.9576 31.6766C33.9576 32.2815 33.7173 32.8617 33.2895 33.2895C32.8617 33.7173 32.2815 33.9576 31.6766 33.9576C31.0716 33.9576 30.4914 33.7173 30.0637 33.2895L30.0636 33.2894L24.5615 27.784L19.0595 33.2894L19.0594 33.2895C18.8476 33.5013 18.5961 33.6693 18.3194 33.784C18.0426 33.8986 17.746 33.9576 17.4465 33.9576C17.1469 33.9576 16.8503 33.8986 16.5736 33.784C16.2968 33.6693 16.0454 33.5013 15.8335 33.2895L16.1871 32.9359L15.8335 33.2895C15.6217 33.0777 15.4537 32.8262 15.3391 32.5495C15.2245 32.2727 15.1655 31.9761 15.1655 31.6766C15.1655 31.377 15.2245 31.0804 15.3391 30.8037C15.4537 30.5269 15.6217 30.2755 15.8335 30.0637L15.8337 30.0636L21.339 24.5615L15.8337 19.0595L15.8335 19.0594C15.4058 18.6316 15.1655 18.0514 15.1655 17.4465C15.1655 16.8415 15.4058 16.2613 15.8335 15.8335C16.2613 15.4058 16.8415 15.1655 17.4465 15.1655C18.0514 15.1655 18.6316 15.4058 19.0594 15.8335L19.0595 15.8337L24.5615 21.339L30.0632 15.834L33.2896 19.0593ZM33.2896 19.0593C33.7168 18.632 33.9567 18.0525 33.9567 17.4482C33.9567 16.9169 33.7712 16.4047 33.436 15.9983V15.9804M33.2896 19.0593L33.436 15.9804M33.436 15.9804L33.29 15.834M33.436 15.9804L33.29 15.834M33.29 15.834C33.0783 15.6218 32.8268 15.4534 32.55 15.3385C32.2731 15.2236 31.9763 15.1645 31.6766 15.1645C31.3768 15.1645 31.0801 15.2236 30.8032 15.3385C30.5265 15.4533 30.2752 15.6216 30.0636 15.8337L33.29 15.834ZM7.54746 7.54746C3.03505 12.0599 0.5 18.18 0.5 24.5615C0.5 30.943 3.03505 37.0632 7.54746 41.5756C12.0599 46.088 18.18 48.623 24.5615 48.623C30.943 48.623 37.0632 46.088 41.5756 41.5756C46.088 37.0632 48.623 30.943 48.623 24.5615C48.623 18.18 46.088 12.0599 41.5756 7.54746C37.0632 3.03505 30.943 0.5 24.5615 0.5C18.18 0.5 12.0599 3.03505 7.54746 7.54746ZM10.6443 10.6443C14.3354 6.95327 19.3416 4.87965 24.5615 4.87965C29.7815 4.87965 34.7876 6.95327 38.4787 10.6443C42.1698 14.3354 44.2434 19.3416 44.2434 24.5615C44.2434 29.7815 42.1698 34.7876 38.4787 38.4787C34.7876 42.1698 29.7815 44.2434 24.5615 44.2434C19.3416 44.2434 14.3354 42.1698 10.6443 38.4787C6.95327 34.7876 4.87965 29.7815 4.87965 24.5615C4.87965 19.3416 6.95327 14.3354 10.6443 10.6443Z" fill="#04E069" stroke="#04E069"/>
</svg>
