<svg width="70" height="55" viewBox="0 0 70 55" fill="none" xmlns="http://www.w3.org/2000/svg">
<path d="M61.621 10.2953C61.355 9.27094 60.599 8.4975 59.7345 8.26031C58.205 7.8375 50.75 6.875 35 6.875C19.25 6.875 11.802 7.8375 10.2585 8.26031C9.4045 8.49406 8.6485 9.2675 8.379 10.2953C7.9975 11.7528 7 17.8612 7 27.5C7 37.1387 7.9975 43.2438 8.379 44.7081C8.645 45.7291 9.401 46.5025 10.262 46.7363C11.802 47.1625 19.25 48.125 35 48.125C50.75 48.125 58.2015 47.1625 59.7415 46.7397C60.5955 46.5059 61.3515 45.7325 61.621 44.7047C62.0025 43.2472 63 37.125 63 27.5C63 17.875 62.0025 11.7562 61.621 10.2953ZM68.4005 8.58688C70 14.7125 70 27.5 70 27.5C70 27.5 70 40.2875 68.4005 46.4131C67.5115 49.7991 64.911 52.4631 61.6175 53.3638C55.636 55 35 55 35 55C35 55 14.3745 55 8.3825 53.3638C5.075 52.4494 2.478 49.7888 1.5995 46.4131C1.04308e-07 40.2875 0 27.5 0 27.5C0 27.5 1.04308e-07 14.7125 1.5995 8.58688C2.4885 5.20094 5.089 2.53687 8.3825 1.63625C14.3745 -6.14673e-07 35 0 35 0C35 0 55.636 -6.14673e-07 61.6175 1.63625C64.925 2.55062 67.522 5.21125 68.4005 8.58688ZM28 39.5312V15.4688L49 27.5L28 39.5312Z" fill="white"/>
</svg>
